<svg width="117" height="102" viewBox="0 0 117 102" fill="none" xmlns="http://www.w3.org/2000/svg">
<path d="M81.5162 45.17C81.5162 45.17 66.755 67.4054 63.2048 67.7791C59.6546 68.1528 48.4435 56.568 48.4435 56.568L51.62 55.8206L62.1958 62.9583C62.1958 62.9583 71.2394 51.8593 79.1993 43.3762L81.5162 45.17Z" fill="white"/>
<path fill-rule="evenodd" clip-rule="evenodd" d="M78.9264 43.1204C79.0583 42.9799 79.2753 42.9627 79.4277 43.0807L81.7447 44.8744C81.8995 44.9943 81.9356 45.2134 81.8272 45.3766L81.5159 45.1699C81.8272 45.3766 81.8274 45.3764 81.8272 45.3766L81.7845 45.4409C81.7563 45.4832 81.7145 45.5458 81.6599 45.6275C81.5507 45.7908 81.3901 46.0303 81.1845 46.335C80.7734 46.9446 80.1822 47.8156 79.4618 48.862C78.0211 50.9544 76.0625 53.749 73.9922 56.5561C71.9231 59.3617 69.7376 62.1864 67.8437 64.3357C66.8975 65.4096 66.017 66.323 65.2552 66.9827C64.8744 67.3125 64.5162 67.585 64.1886 67.7832C63.8667 67.9779 63.5455 68.1189 63.2436 68.1506C62.7025 68.2076 62.0666 68.0363 61.4019 67.7473C60.7274 67.454 59.9778 67.0191 59.193 66.4959C57.6225 65.4489 55.874 64.0234 54.246 62.5944C52.6161 61.1639 51.0987 59.7226 49.9893 58.6396C49.4344 58.0979 48.9812 57.6454 48.6665 57.3281C48.5091 57.1695 48.3864 57.0446 48.3029 56.9593C48.2611 56.9167 48.2292 56.8839 48.2076 56.8617L48.1831 56.8365L48.1748 56.8279C48.1747 56.8278 48.1746 56.8278 48.4431 56.5679L48.1748 56.8279C48.0813 56.7313 48.0467 56.5917 48.0845 56.4627C48.1224 56.3337 48.2267 56.2349 48.3575 56.2041L51.534 55.4567C51.6355 55.4328 51.7423 55.4524 51.8287 55.5107L62.1219 62.4578C62.1754 62.3925 62.2385 62.3155 62.3108 62.2276C62.5739 61.9071 62.9586 61.44 63.4451 60.853C64.4181 59.679 65.7983 58.0254 67.4273 56.1065C70.6848 52.2695 74.9403 47.3686 78.9264 43.1204ZM62.1954 62.9582L62.4851 63.1943C62.363 63.3442 62.1467 63.3762 61.9864 63.268L51.5461 56.2217L49.1751 56.7796C49.1824 56.7869 49.1897 56.7943 49.1971 56.8018C49.5094 57.1166 49.9598 57.5662 50.5114 58.1048C51.615 59.1822 53.1223 60.6137 54.739 62.0327C56.3575 63.4533 58.0774 64.8539 59.6075 65.874C60.373 66.3843 61.0817 66.7931 61.6999 67.0618C62.3277 67.3348 62.8188 67.4438 63.1653 67.4073C63.3072 67.3924 63.5173 67.3158 63.8017 67.1438C64.0803 66.9752 64.4033 66.7317 64.7659 66.4177C65.4909 65.7899 66.346 64.9049 67.2829 63.8416C69.1553 61.7167 71.3258 58.9125 73.3907 56.1125C75.4546 53.3141 77.4082 50.5265 78.8462 48.4381C79.5651 47.394 80.1549 46.525 80.5649 45.9171C80.7536 45.6374 80.9042 45.4129 81.0117 45.2522L79.2391 43.8799C75.3328 48.0567 71.1881 52.8315 67.9971 56.5902C66.3703 58.5064 64.9921 60.1577 64.0206 61.3299C63.5349 61.916 63.1509 62.3822 62.8884 62.7019C62.7571 62.8617 62.6562 62.9849 62.5882 63.0681L62.4851 63.1943C62.4851 63.1944 62.4851 63.1943 62.1954 62.9582Z" fill="#374957"/>
<path d="M78.9001 38.5181C78.9001 38.5181 75.9479 38.6302 76.06 39.9381C76.1721 41.2087 76.06 44.7215 76.8448 45.3568C77.6296 45.9921 78.788 46.2537 79.0496 44.9831C79.2738 43.6752 78.9001 38.5181 78.9001 38.5181Z" fill="white"/>
<path fill-rule="evenodd" clip-rule="evenodd" d="M79.2729 38.491L78.9002 38.518L78.886 38.1446C79.0872 38.1369 79.2583 38.2901 79.2729 38.491ZM78.5532 38.9197C78.5304 38.922 78.5068 38.9246 78.4824 38.9273C78.2178 38.9571 77.8718 39.0094 77.5336 39.0988C77.1891 39.1899 76.8844 39.3116 76.6797 39.4641C76.485 39.6092 76.419 39.7485 76.4323 39.9057C76.4592 40.2107 76.4735 40.6355 76.4891 41.1015C76.4904 41.1404 76.4917 41.1795 76.4931 41.2188C76.5106 41.737 76.5314 42.308 76.5728 42.8576C76.6144 43.4094 76.6757 43.9256 76.7709 44.3364C76.8185 44.5417 76.8722 44.7103 76.9307 44.8393C76.9909 44.9721 77.0451 45.0381 77.0799 45.0663C77.4367 45.3551 77.8363 45.521 78.131 45.5111C78.2671 45.5066 78.3712 45.4658 78.4529 45.3911C78.5369 45.3143 78.628 45.173 78.6823 44.9138C78.7313 44.6222 78.7507 44.0886 78.7472 43.4231C78.7437 42.7627 78.7182 42.001 78.6857 41.2769C78.6531 40.5533 78.6135 39.8701 78.5821 39.3676C78.5713 39.195 78.5614 39.0438 78.5532 38.9197ZM78.9002 38.518C78.886 38.1446 78.8861 38.1446 78.886 38.1446L78.8848 38.1446L78.8825 38.1447L78.8748 38.145C78.8683 38.1453 78.8591 38.1458 78.8473 38.1464C78.8238 38.1476 78.79 38.1496 78.7475 38.1526C78.6626 38.1585 78.5424 38.1684 78.3988 38.1846C78.1134 38.2167 77.7283 38.2742 77.3425 38.3763C76.9629 38.4767 76.5506 38.6283 76.2332 38.8647C75.9062 39.1084 75.6451 39.4734 75.6877 39.97L75.6877 39.9709C75.7128 40.2546 75.7264 40.6591 75.7424 41.1361C75.7436 41.1717 75.7448 41.2077 75.7461 41.2441C75.7636 41.7617 75.7848 42.3469 75.8275 42.9137C75.87 43.4783 75.9348 44.0389 76.0428 44.5051C76.0968 44.7383 76.164 44.9584 76.25 45.148C76.3343 45.3339 76.4483 45.5166 76.6097 45.6472C77.0377 45.9937 77.6097 46.2763 78.1559 46.2581C78.4401 46.2486 78.7237 46.1563 78.9574 45.9426C79.188 45.7315 79.339 45.4307 79.4157 45.0584C79.4165 45.0544 79.4173 45.0503 79.418 45.0462C79.4803 44.6825 79.4981 44.0838 79.4946 43.4191C79.491 42.7447 79.4651 41.9719 79.4323 41.2432C79.3995 40.514 79.3596 39.8262 79.328 39.3209C79.3122 39.0682 79.2984 38.8609 79.2886 38.7167C79.2837 38.6447 79.2798 38.5883 79.2771 38.55L79.2729 38.491C79.2729 38.4909 79.2729 38.491 78.9002 38.518Z" fill="#374957"/>
<path d="M79.6477 44.572C79.6477 44.572 79.7598 48.4211 80.0214 48.8322C80.283 49.2059 82.0768 50.626 83.2353 50.3644C84.3937 50.1028 84.02 48.9443 84.02 48.309C84.02 47.6737 84.02 38.1443 84.02 38.1443H79.6477V44.572Z" fill="#374957"/>
<path fill-rule="evenodd" clip-rule="evenodd" d="M79.4607 38.1444C79.4607 38.0412 79.5443 37.9575 79.6475 37.9575H84.0199C84.1231 37.9575 84.2067 38.0412 84.2067 38.1444H84.0199C84.2067 38.1444 84.2067 38.1443 84.2067 38.1444V48.3091C84.2067 48.4161 84.218 48.5369 84.231 48.676C84.2361 48.7298 84.2414 48.7864 84.2464 48.8459C84.2635 49.0503 84.2756 49.2792 84.2473 49.5006C84.2188 49.7234 84.1481 49.9499 83.9907 50.1411C83.8317 50.3342 83.5984 50.474 83.2763 50.5467C82.9429 50.622 82.5782 50.574 82.2265 50.4667C81.8729 50.3589 81.5181 50.1869 81.1969 49.9976C80.8752 49.8079 80.5826 49.5981 80.3529 49.411C80.1283 49.2282 79.9495 49.0556 79.8682 48.9394C79.8666 48.9372 79.8651 48.9349 79.8636 48.9326C79.8332 48.8849 79.8116 48.826 79.7949 48.7703C79.7774 48.7115 79.7614 48.6426 79.7467 48.5669C79.7172 48.4153 79.6907 48.2257 79.6668 48.0142C79.619 47.5907 79.5802 47.0672 79.5498 46.5592C79.5193 46.0507 79.4971 45.5554 79.4824 45.1873C79.4751 45.0033 79.4697 44.8509 79.4661 44.7446C79.4643 44.6914 79.463 44.6497 79.4621 44.6212L79.4608 44.5777C79.4608 44.5777 79.4608 44.5775 79.6475 44.5721L79.4608 44.5777L79.4607 44.5721V38.1444ZM79.8344 44.5693L79.8356 44.6096C79.8365 44.6377 79.8378 44.6791 79.8396 44.732C79.8432 44.8377 79.8486 44.9893 79.8559 45.1725C79.8704 45.539 79.8926 46.0317 79.9228 46.5369C79.9531 47.0426 79.9914 47.5584 80.0382 47.9722C80.0616 48.1794 80.0868 48.358 80.1135 48.4956C80.1269 48.5644 80.1402 48.6204 80.153 48.6632C80.1593 48.6844 80.1651 48.701 80.1702 48.7134C80.1727 48.7195 80.1748 48.7241 80.1764 48.7273C80.1769 48.7284 80.1774 48.7293 80.1777 48.7299C80.2302 48.8022 80.3722 48.9449 80.5888 49.1212C80.8052 49.2974 81.0825 49.4963 81.3867 49.6757C81.6915 49.8554 82.0187 50.0127 82.3355 50.1093C82.6541 50.2064 82.948 50.2377 83.1939 50.1822C83.451 50.1242 83.6054 50.0211 83.7022 49.9035C83.8006 49.784 83.8537 49.6322 83.8766 49.4532C83.8996 49.2729 83.8907 49.0767 83.874 48.8771C83.8699 48.8282 83.8652 48.7781 83.8605 48.7279C83.8468 48.5822 83.833 48.435 83.833 48.3091V38.3312H79.8344L79.8344 44.5693Z" fill="#374957"/>
<path d="M85.7016 45.9922C85.7016 45.9922 86.5985 47.6739 85.8137 48.9445C85.0289 50.2151 82.8615 50.2151 81.9646 49.5798C81.0677 48.9445 81.703 48.0476 82.4878 47.786C83.2725 47.5244 84.2815 46.8891 84.2815 46.1043C84.2815 45.3569 85.3279 45.5064 85.7016 45.9922Z" fill="white"/>
<path fill-rule="evenodd" clip-rule="evenodd" d="M84.6843 45.9947C84.6801 45.9979 84.6551 46.0164 84.6551 46.1042C84.6551 46.6617 84.3007 47.112 83.9169 47.4293C83.524 47.7541 83.0323 47.9982 82.6058 48.1404C82.29 48.2457 82.0321 48.4733 81.9386 48.6904C81.8954 48.7909 81.8904 48.8792 81.9148 48.9589C81.9396 49.0399 82.0071 49.152 82.1804 49.2747C82.5326 49.5242 83.1989 49.6783 83.8918 49.6051C84.5802 49.5324 85.1868 49.248 85.4956 48.748C85.8143 48.2321 85.8038 47.6093 85.6866 47.0713C85.6292 46.8074 85.5489 46.5781 85.4829 46.4149C85.45 46.3336 85.4211 46.2697 85.4008 46.227C85.3954 46.2155 85.3905 46.2056 85.3865 46.1973C85.2706 46.0665 85.0437 45.9624 84.8456 45.9594C84.747 45.9579 84.6998 45.9824 84.6848 45.9944C84.6847 45.9945 84.6845 45.9946 84.6843 45.9947ZM85.7014 45.9921L86.0312 45.8163C86.0215 45.798 86.0103 45.7806 85.9977 45.7643C85.7326 45.4196 85.2641 45.2182 84.8569 45.2121C84.6472 45.2089 84.4095 45.2568 84.2167 45.4118C84.0113 45.5767 83.9077 45.8221 83.9077 46.1042C83.9077 46.3315 83.7576 46.5913 83.4407 46.8532C83.1329 47.1077 82.7277 47.312 82.3694 47.4314C81.9004 47.5877 81.4483 47.9393 81.2521 48.3949C81.1506 48.6308 81.1158 48.9022 81.2001 49.1775C81.2839 49.4515 81.4733 49.6898 81.7484 49.8846C82.2931 50.2705 83.159 50.434 83.9703 50.3484C84.786 50.2622 85.6556 49.9113 86.1315 49.1408C86.5976 48.3861 86.552 47.5327 86.4169 46.9123C86.3483 46.597 86.2534 46.3264 86.1757 46.1346C86.1368 46.0383 86.1018 45.961 86.0761 45.9067C86.0632 45.8795 86.0526 45.8581 86.0449 45.8428C86.0411 45.8352 86.0379 45.8292 86.0356 45.8247L86.0328 45.8193L86.0318 45.8174L86.0315 45.8168C86.0314 45.8167 86.0312 45.8163 85.7014 45.9921Z" fill="#374957"/>
<path d="M86.4115 43.5631C86.4115 44.4599 86.262 45.9174 85.5519 46.5527C84.7672 47.2627 81.1422 47.3001 79.5727 46.2537C78.0031 45.2074 79.0495 43.3762 80.2453 43.4883C81.2543 43.6004 82.3007 43.3388 83.3097 43.2267C83.8703 43.152 85.8883 42.7035 86.262 43.1146C86.4115 43.1894 86.4115 43.3762 86.4115 43.5631Z" fill="white"/>
<path fill-rule="evenodd" clip-rule="evenodd" d="M83.7965 43.526C83.6204 43.5562 83.4652 43.5829 83.3592 43.5971L83.351 43.5981C83.1067 43.6252 82.8585 43.6616 82.6029 43.7001C82.5714 43.7048 82.5398 43.7096 82.5081 43.7144C82.2843 43.7483 82.0545 43.783 81.8248 43.8122C81.3015 43.8788 80.7546 43.9204 80.2077 43.86C79.8143 43.8247 79.391 44.1158 79.2221 44.5674C79.1414 44.7832 79.1277 45.0193 79.2026 45.2479C79.277 45.4748 79.4474 45.7209 79.78 45.9427C80.4765 46.407 81.6893 46.6561 82.8668 46.6882C83.4468 46.704 83.9959 46.6664 84.44 46.585C84.9044 46.4999 85.1875 46.3784 85.3013 46.2755L85.3028 46.2741L85.3028 46.2741C85.5702 46.0349 85.7629 45.6051 85.8836 45.0732C86.0015 44.5532 86.0378 43.9944 86.0378 43.563C86.0378 43.5144 86.0377 43.4775 86.036 43.444C86.0353 43.4304 86.0344 43.4192 86.0334 43.4101C86.0195 43.3994 86.0064 43.3877 85.9942 43.3751C85.9888 43.3722 85.9743 43.3652 85.9459 43.3569C85.8908 43.3408 85.8097 43.3276 85.7002 43.3212C85.4813 43.3084 85.2011 43.3255 84.8979 43.3598C84.5975 43.3936 84.289 43.4425 84.0171 43.4883C83.9414 43.501 83.8673 43.5138 83.7965 43.526ZM86.4897 42.8149C86.3862 42.7228 86.263 42.671 86.1558 42.6396C86.0269 42.6019 85.8846 42.5833 85.7437 42.575C85.4615 42.5586 85.1321 42.5812 84.8141 42.6171C84.4931 42.6533 84.1687 42.7048 83.8929 42.7513C83.8058 42.7659 83.725 42.7798 83.6509 42.7926C83.4863 42.8209 83.3554 42.8434 83.2642 42.8557C83.0055 42.8846 82.7459 42.9227 82.4915 42.961C82.4596 42.9659 82.4277 42.9707 82.3959 42.9755C82.1712 43.0094 81.9508 43.0428 81.7304 43.0708C81.2271 43.1349 80.7475 43.168 80.2867 43.1168L80.2803 43.1162C79.4787 43.041 78.7825 43.6092 78.522 44.3056C78.3878 44.6644 78.3595 45.0753 78.4924 45.4807C78.6259 45.8881 78.9133 46.2632 79.3654 46.5646C80.2385 47.1466 81.623 47.402 82.8465 47.4353C83.4671 47.4522 84.0694 47.4128 84.5747 47.3202C85.0593 47.2313 85.5232 47.0821 85.8019 46.8304C86.2441 46.4343 86.481 45.8181 86.6125 45.2386C86.7467 44.6468 86.7852 44.0285 86.7852 43.563C86.7852 43.5585 86.7852 43.5538 86.7852 43.549C86.7853 43.466 86.7855 43.334 86.7566 43.2111C86.7259 43.0806 86.6533 42.921 86.4897 42.8149Z" fill="#374957"/>
<path d="M86.86 40.3492C86.9721 41.2461 87.0469 42.7409 86.2994 43.3762C85.4773 44.1236 81.1797 44.3478 79.1617 43.3388C77.1437 42.3672 78.1153 40.4613 79.5354 40.5361C80.7313 40.5734 81.9645 40.2745 83.123 40.125C83.7956 40.0129 86.1126 39.4897 86.6358 39.9008C86.7853 39.9755 86.8226 40.1624 86.86 40.3492Z" fill="white"/>
<path fill-rule="evenodd" clip-rule="evenodd" d="M83.5959 40.4183C83.4335 40.4489 83.2933 40.4754 83.1843 40.4935C83.1798 40.4943 83.1753 40.4949 83.1707 40.4955C82.8327 40.5391 82.5009 40.5936 82.1588 40.6497C81.9125 40.6902 81.6608 40.7315 81.3976 40.7702C80.7875 40.8601 80.1546 40.9292 79.5237 40.9095L79.5157 40.9092C78.9768 40.8808 78.5381 41.2292 78.4185 41.6476C78.3607 41.8502 78.3747 42.0761 78.4974 42.3021C78.6219 42.5314 78.8717 42.7844 79.3237 43.002L79.3288 43.0045C80.2569 43.4686 81.7633 43.6655 83.1728 43.6424C83.8702 43.631 84.5243 43.5661 85.0475 43.4611C85.3092 43.4086 85.5316 43.3474 85.7072 43.2809C85.8881 43.2125 85.9953 43.1475 86.048 43.0996C86.0511 43.0968 86.0542 43.0941 86.0573 43.0914C86.3194 42.8686 86.4727 42.4574 86.5304 41.9208C86.586 41.4032 86.5447 40.8446 86.4908 40.409C86.4823 40.3669 86.4752 40.3324 86.4673 40.3003C86.4587 40.2652 86.451 40.2414 86.4443 40.2251C86.4436 40.2234 86.4429 40.2219 86.4423 40.2204C86.4293 40.2126 86.4168 40.2039 86.4048 40.1945M86.8373 39.585C86.7148 39.4981 86.5718 39.4507 86.4411 39.4224C86.2953 39.3909 86.1338 39.3768 85.9694 39.3729C85.6405 39.3653 85.2594 39.3983 84.8878 39.4459C84.3589 39.5137 83.8053 39.618 83.4214 39.6904C83.2756 39.7178 83.1543 39.7407 83.0681 39.7552C82.7278 39.7993 82.3684 39.858 82.0127 39.9162C81.7671 39.9564 81.5232 39.9963 81.2887 40.0308C80.6948 40.1183 80.1144 40.1798 79.5507 40.1626C78.6714 40.1182 77.9163 40.6848 77.6999 41.4423C77.5896 41.8284 77.6222 42.2565 77.8405 42.6587C78.0568 43.0571 78.4414 43.4063 78.997 43.6743C80.0869 44.2182 81.7369 44.4134 83.185 44.3897C83.9171 44.3778 84.6176 44.3096 85.1945 44.1939C85.4829 44.136 85.7469 44.065 85.9716 43.98C86.1886 43.898 86.3935 43.7938 86.5459 43.657C87.0278 43.2443 87.2099 42.5926 87.2735 42.0006C87.3388 41.3932 87.2881 40.7621 87.2307 40.3028C87.2296 40.2937 87.2281 40.2848 87.2264 40.2758C87.2256 40.2718 87.2247 40.2677 87.2239 40.2635C87.207 40.1788 87.1822 40.0542 87.1354 39.9406C87.0865 39.8219 86.9995 39.6785 86.8373 39.585Z" fill="#374957"/>
<path d="M86.5984 35.9767C86.8973 36.7988 87.3084 38.2563 86.7478 39.0784C86.1125 39.9753 81.9644 41.1338 79.797 40.6106C77.5921 40.0874 78.1153 38.0321 79.5354 37.7705C80.6938 37.5463 81.8523 36.9857 82.9361 36.5746C83.5714 36.313 85.7015 35.304 86.2994 35.5656C86.4489 35.603 86.5236 35.7898 86.5984 35.9767C86.5984 35.9393 86.5984 35.9393 86.5984 35.9767Z" fill="white"/>
<path fill-rule="evenodd" clip-rule="evenodd" d="M83.4472 36.7625C83.3022 36.8254 83.1768 36.8798 83.0784 36.9204C83.0752 36.9217 83.0719 36.923 83.0686 36.9242C82.8045 37.0244 82.5285 37.137 82.244 37.2532C81.4094 37.5938 80.5016 37.9643 79.6064 38.1375L79.6031 38.1382L79.6031 38.1382C79.055 38.2391 78.7031 38.6812 78.68 39.1126C78.6688 39.3219 78.7332 39.5397 78.9063 39.7357C79.0821 39.9347 79.3873 40.1295 79.8833 40.2472L79.8847 40.2475C80.8812 40.4881 82.39 40.3459 83.759 40.014C84.4361 39.8499 85.06 39.6438 85.5474 39.4282C85.7913 39.3203 85.9948 39.2128 86.1514 39.1105C86.3108 39.0065 86.4003 38.9217 86.4412 38.865C86.6417 38.5684 86.691 38.114 86.6246 37.5733C86.5598 37.0465 86.3942 36.5095 86.2492 36.1101C86.231 36.0645 86.2157 36.0266 86.2001 35.9917C86.1839 35.9555 86.1708 35.9305 86.1601 35.9133C86.1598 35.913 86.1596 35.9126 86.1594 35.9123C86.1561 35.9109 86.1529 35.9096 86.1497 35.9082C86.1497 35.9082 86.1497 35.9082 86.1496 35.9082C86.1489 35.9079 86.1395 35.9043 86.1175 35.9011C86.0941 35.8978 86.0617 35.8958 86.0191 35.8969C85.9328 35.8992 85.822 35.9138 85.6881 35.942C85.4201 35.9984 85.0974 36.1012 84.7606 36.2249C84.2777 36.4023 83.8033 36.6081 83.4472 36.7625ZM86.1478 35.896C86.1478 35.896 86.1482 35.8964 86.149 35.8974C86.1482 35.8965 86.1478 35.896 86.1478 35.896ZM86.6755 35.9488H86.6685L86.9454 35.8381C86.9438 35.8342 86.9422 35.8302 86.9406 35.8262C86.9068 35.7414 86.8586 35.6209 86.7939 35.5172C86.7289 35.4133 86.6142 35.2717 86.4222 35.2122C86.2832 35.1578 86.1329 35.1462 85.9995 35.1497C85.8524 35.1536 85.6937 35.177 85.5339 35.2106C85.2145 35.278 84.8529 35.3948 84.5029 35.5233C83.9983 35.7087 83.4797 35.9336 83.1208 36.0892C82.9889 36.1464 82.8787 36.1942 82.7986 36.2273C82.4971 36.3417 82.1981 36.4637 81.9005 36.5851C81.0861 36.9173 80.282 37.2453 79.4659 37.4035C78.5949 37.5647 77.976 38.2807 77.9337 39.0727C77.9122 39.4753 78.0416 39.8858 78.3462 40.2305C78.6479 40.5721 79.1039 40.8303 79.71 40.9742C80.881 41.2566 82.5295 41.0811 83.9351 40.7404C84.6453 40.5682 85.313 40.3492 85.8498 40.1117C86.118 39.993 86.3598 39.867 86.56 39.7363C86.7553 39.6089 86.9341 39.4622 87.0528 39.2946L87.0567 39.2891C87.415 38.7635 87.4398 38.0794 87.3664 37.4821C87.2913 36.8716 87.1031 36.2714 86.9496 35.8492L86.6755 35.9488Z" fill="#374957"/>
<path d="M52.33 100.553L40.5583 56.5308H36.597L49.0787 100.889" fill="#374957"/>
<path fill-rule="evenodd" clip-rule="evenodd" d="M36.4479 56.4178C36.4833 56.3711 36.5384 56.3438 36.5969 56.3438H40.5581C40.6428 56.3438 40.7168 56.4006 40.7387 56.4823L52.5103 100.505C52.537 100.604 52.4778 100.707 52.3781 100.733C52.2784 100.76 52.176 100.701 52.1493 100.601L40.4147 56.7175H36.8436L49.2585 100.839C49.2864 100.938 49.2285 101.041 49.1292 101.069C49.0299 101.097 48.9267 101.039 48.8987 100.94L36.417 56.5812C36.4012 56.5249 36.4126 56.4644 36.4479 56.4178Z" fill="#374957"/>
<path d="M44.557 96.33L33.1591 56.3438L36.5971 56.5306L49.0788 100.889" fill="white"/>
<path fill-rule="evenodd" clip-rule="evenodd" d="M32.8667 56.1108C32.9421 56.0164 33.0584 55.9642 33.179 55.9708L36.6171 56.1576C36.7768 56.1663 36.9132 56.2756 36.9566 56.4295L49.4383 100.788C49.4942 100.987 49.3784 101.193 49.1797 101.249C48.9811 101.305 48.7747 101.189 48.7188 100.991L36.3095 56.8894L33.6618 56.7455L44.9161 96.2278C44.9727 96.4262 44.8576 96.633 44.6591 96.6896C44.4607 96.7462 44.2539 96.6311 44.1973 96.4326L32.7994 56.4464C32.7662 56.3302 32.7913 56.2052 32.8667 56.1108Z" fill="#374957"/>
<path fill-rule="evenodd" clip-rule="evenodd" d="M45.0149 97.9888C45.2134 97.9321 45.4202 98.0471 45.4769 98.2455L46.0001 100.077C46.0568 100.275 45.9419 100.482 45.7434 100.539C45.545 100.595 45.3381 100.48 45.2814 100.282L44.7582 98.4508C44.7015 98.2524 44.8165 98.0455 45.0149 97.9888Z" fill="#374957"/>
<path d="M60.215 66.8821C60.215 66.8821 58.9444 68.8254 57.3749 69.087C55.8427 69.3486 39.4745 56.4558 39.4745 56.4558L46.1638 57.2406L60.215 66.8821Z" fill="white"/>
<path fill-rule="evenodd" clip-rule="evenodd" d="M39.1292 56.313C39.1931 56.1584 39.3519 56.0651 39.5181 56.0846L46.2074 56.8694C46.2676 56.8764 46.3252 56.8981 46.3752 56.9324L60.4265 66.5739C60.594 66.6889 60.639 66.9166 60.5278 67.0866L60.2151 66.8821C60.5278 67.0866 60.5279 67.0865 60.5278 67.0866L60.5276 67.087L60.5261 67.0892L60.5225 67.0947C60.5195 67.0992 60.5152 67.1056 60.5098 67.1136C60.4989 67.1297 60.4832 67.1526 60.4629 67.1814C60.4223 67.2389 60.3634 67.3202 60.2879 67.418C60.1374 67.6132 59.9194 67.8766 59.649 68.1495C59.1201 68.6831 58.3407 69.3045 57.4372 69.4554C57.3209 69.4751 57.2045 69.4598 57.1084 69.4387C57.0069 69.4163 56.8977 69.3803 56.7849 69.3361C56.5592 69.2475 56.2888 69.1138 55.9855 68.9466C55.3772 68.6113 54.6017 68.1222 53.7236 67.5342C51.9658 66.357 49.7701 64.7654 47.6269 63.1691C45.4827 61.5721 43.3869 59.9672 41.8274 58.7618C41.0476 58.1591 40.4017 57.6561 39.9508 57.3037C39.7253 57.1275 39.5485 56.989 39.428 56.8945L39.2435 56.7495C39.2433 56.7494 39.2433 56.7493 39.4745 56.4557L39.2435 56.7495C39.1121 56.646 39.0652 56.4676 39.1292 56.313ZM40.7534 56.9821C41.1662 57.3039 41.6858 57.7077 42.2845 58.1705C43.842 59.3743 45.934 60.9763 48.0734 62.5697C50.2138 64.1639 52.3975 65.7465 54.1395 66.9132C55.0115 67.4971 55.7661 67.9723 56.3462 68.292C56.6371 68.4523 56.8754 68.5687 57.0579 68.6403C57.1491 68.6761 57.2189 68.6977 57.2692 68.7088C57.3001 68.7156 57.3163 68.7167 57.321 68.717C57.9839 68.6038 58.6214 68.1246 59.1181 67.6234C59.3564 67.3829 59.5508 67.1492 59.6872 66.9731L46.0285 57.6009L40.7534 56.9821Z" fill="#374957"/>
<path d="M70.6039 46.2164C70.6039 46.2164 67.5395 20.6925 60.626 11.7983C53.1146 2.08202 37.9796 10.0045 41.0813 25.5506C43.4356 37.5091 50.3118 58.885 50.3118 58.885L70.6039 46.2164Z" fill="#FFE07D"/>
<path fill-rule="evenodd" clip-rule="evenodd" d="M46.6757 8.88407C51.161 6.08074 57.0396 6.54831 60.9215 11.5693C62.6876 13.8416 64.1913 17.1505 65.4549 20.8062C66.721 24.4687 67.7558 28.5086 68.5727 32.2631C69.3899 36.0187 69.9903 39.4947 70.3864 42.0316C70.5844 43.3002 70.7315 44.3344 70.8291 45.0518C70.8779 45.4106 70.9143 45.6901 70.9385 45.8802C70.9507 45.9752 70.9598 46.0479 70.9658 46.0969L70.9727 46.1526L70.9744 46.1668L70.9748 46.1704L70.9749 46.1714C70.975 46.1716 70.975 46.1718 70.604 46.2163L70.975 46.1718C70.9923 46.3157 70.9248 46.4566 70.8019 46.5333L50.5098 59.2019C50.412 59.2629 50.2916 59.2754 50.1835 59.2358C50.0753 59.1962 49.9914 59.109 49.9561 58.9993L50.3119 58.8849C49.9561 58.9993 49.9562 58.9995 49.9561 58.9993L49.9362 58.9373C49.9282 58.9124 49.9179 58.8801 49.9052 58.8406C49.8971 58.8152 49.8881 58.7869 49.8781 58.7556C49.8271 58.5958 49.752 58.3601 49.6556 58.0559C49.4628 57.4475 49.1848 56.5651 48.8438 55.469C48.162 53.2769 47.2283 50.2293 46.221 46.8077C44.2076 39.9687 41.8956 31.6208 40.7148 25.6231C39.1374 17.7164 42.1938 11.6853 46.6757 8.88407ZM50.5215 58.3134C50.479 58.1797 50.4276 58.018 50.368 57.8301C50.1756 57.2228 49.898 56.3418 49.5575 55.247C48.8765 53.0575 47.944 50.0137 46.938 46.5966C44.9248 39.7582 42.6216 31.4391 41.448 25.4783L41.4479 25.4774C39.9237 17.8382 42.8839 12.1353 47.0718 9.51787C51.2563 6.90256 56.7008 7.3318 60.3304 12.0268L60.331 12.0276C62.0215 14.2023 63.4933 17.419 64.7486 21.0503C66.0015 24.675 67.0291 28.6838 67.8424 32.422C68.6556 36.1592 69.2534 39.6201 69.6479 42.1469C69.8451 43.4101 69.9915 44.4394 70.0885 45.1526C70.137 45.5091 70.1731 45.7867 70.1972 45.9748C70.1994 45.9926 70.2016 46.0095 70.2036 46.0257L50.5215 58.3134Z" fill="#374957"/>
<path d="M48.518 8.54712L8.27013 21.253C6.96217 21.6641 5.72895 22.3742 4.75732 23.3084C2.21613 25.7749 -1.59564 31.0441 1.58084 38.7797C5.5421 48.496 11.8951 55.6338 11.8951 55.6338L50.2744 58.885L42.5014 28.8392C42.5388 28.8392 38.9138 15.6101 48.518 8.54712Z" fill="white"/>
<mask id="mask0_54_314" style="mask-type:luminance" maskUnits="userSpaceOnUse" x="0" y="8" width="51" height="51">
<path d="M48.518 8.54712L8.27013 21.253C6.96217 21.6641 5.72895 22.3742 4.75732 23.3084C2.21613 25.7749 -1.59564 31.0441 1.58084 38.7797C5.5421 48.496 11.8951 55.6338 11.8951 55.6338L50.2744 58.885L42.5014 28.8392C42.5388 28.8392 38.9138 15.6101 48.518 8.54712Z" fill="white"/>
</mask>
<g mask="url(#mask0_54_314)">
<path d="M29.6457 43.8995C39.3247 48.4213 44.5191 47.6365 47.0603 46.3285L50.3116 58.885L11.9322 55.6338C11.9322 55.6338 5.57923 48.496 1.61797 38.7797C1.16953 37.696 0.870568 36.6496 0.683716 35.6406C9.98894 33.4731 17.3883 38.1818 29.6457 43.8995Z" fill="#FFE07D"/>
</g>
<mask id="mask1_54_314" style="mask-type:luminance" maskUnits="userSpaceOnUse" x="0" y="8" width="51" height="51">
<path d="M48.518 8.54712L8.27013 21.253C6.96217 21.6641 5.72895 22.3742 4.75732 23.3084C2.21613 25.7749 -1.59564 31.0441 1.58084 38.7797C5.5421 48.496 11.8951 55.6338 11.8951 55.6338L50.2744 58.885L42.5014 28.8392C42.5388 28.8392 38.9138 15.6101 48.518 8.54712Z" fill="white"/>
</mask>
<g mask="url(#mask1_54_314)">
<path opacity="0.5" d="M29.6457 43.8995C39.3247 48.4213 44.5191 47.6365 47.0603 46.3285L50.3116 58.885L11.9322 55.6338C11.9322 55.6338 5.57923 48.496 1.61797 38.7797C1.16953 37.696 0.870568 36.6496 0.683716 35.6406C9.98894 33.4731 17.3883 38.1818 29.6457 43.8995Z" fill="white"/>
</g>
<path fill-rule="evenodd" clip-rule="evenodd" d="M48.8512 8.37787C48.934 8.54087 48.8867 8.73984 48.7395 8.84815C44.0574 12.2914 42.5894 17.2407 42.2949 21.3684C42.1478 23.4311 42.2949 25.2787 42.477 26.6112C42.5679 27.277 42.6674 27.8131 42.7429 28.1821C42.7806 28.3666 42.8124 28.5095 42.8343 28.607L42.8419 28.6412C42.8493 28.6739 42.8555 28.7016 42.8599 28.7219C42.8627 28.7347 42.866 28.7502 42.8684 28.7639C42.8687 28.7652 42.869 28.7672 42.8695 28.7697L50.6363 58.7914C50.6666 58.9087 50.6382 59.0334 50.56 59.126C50.4819 59.2186 50.3637 59.2676 50.2429 59.2573L11.8636 56.0061C11.7682 55.998 11.6796 55.9537 11.616 55.8822L11.8951 55.6337C11.616 55.8822 11.616 55.8823 11.616 55.8822L11.6144 55.8805L11.6106 55.8762L11.5962 55.8598C11.5835 55.8455 11.565 55.8243 11.5407 55.7964C11.4922 55.7406 11.421 55.658 11.3293 55.5497C11.1457 55.333 10.8799 55.0136 10.5489 54.6003C9.88685 53.7736 8.96375 52.571 7.91655 51.0636C5.82316 48.0502 3.22911 43.8123 1.235 38.9212C-0.387561 34.9695 -0.231082 31.6256 0.670857 28.9488C1.56971 26.281 3.20076 24.2984 4.49709 23.0402L4.49835 23.039C5.51433 22.0621 6.79886 21.3237 8.15813 20.8965L48.4056 8.19073C48.5799 8.13569 48.7685 8.21487 48.8512 8.37787ZM12.0772 55.2741L49.7806 58.4681L42.1396 28.9328C42.1356 28.917 42.1325 28.9011 42.1306 28.8851C42.1302 28.8837 42.1299 28.882 42.1295 28.8802C42.1257 28.8628 42.1204 28.8391 42.1132 28.8073L42.105 28.7708C42.0826 28.671 42.0497 28.5229 42.0106 28.3318C41.9325 27.9498 41.83 27.3972 41.7364 26.7124C41.5494 25.3437 41.3976 23.4426 41.5494 21.3152C41.8199 17.5244 43.0583 12.9835 46.8104 9.47808L8.38222 21.6095C7.12582 22.0044 5.94413 22.6859 5.01694 23.5772C3.7722 24.7855 2.22719 26.6705 1.37914 29.1874C0.534048 31.6956 0.372857 34.854 1.92658 38.6378L1.92693 38.6386C3.89406 43.4637 6.45703 47.6526 8.53038 50.6371C9.56657 52.1287 10.4793 53.3177 11.1322 54.1331C11.4587 54.5407 11.7201 54.8548 11.8995 55.0665C11.9728 55.153 12.0324 55.2224 12.0772 55.2741Z" fill="#374957"/>
<path d="M25.8715 12.3215L32.187 31.9783C33.2708 32.1652 34.3172 33.0247 34.8403 34.3327C35.5504 36.1264 34.9898 38.0323 33.6071 38.5929C32.187 39.1534 30.468 38.1444 29.758 36.3507C29.16 34.8559 29.459 33.3237 30.3559 32.5015L25.8715 17.4039L19.7053 19.4966L18.0237 15.1243L25.8715 12.3215Z" fill="#374957"/>
<path fill-rule="evenodd" clip-rule="evenodd" d="M25.9544 12.1538C25.9997 12.1762 26.0341 12.216 26.0496 12.2642L32.3313 31.8157C33.4465 32.0531 34.4882 32.9484 35.014 34.2631L35.0143 34.2637C35.7455 36.111 35.1922 38.1518 33.6775 38.7659L33.6759 38.7665C32.1233 39.3794 30.3163 38.2677 29.5846 36.4197C28.9835 34.9166 29.246 33.347 30.1446 32.4454L25.7478 17.6431L19.7656 19.6734C19.6706 19.7057 19.5672 19.6572 19.5312 19.5636L17.8495 15.1912C17.8314 15.1442 17.8331 15.092 17.8541 15.0462C17.8751 15.0005 17.9136 14.9651 17.961 14.9482L25.8088 12.1454C25.8565 12.1284 25.909 12.1314 25.9544 12.1538ZM18.267 15.2357L19.8155 19.2618L25.8116 17.2268C25.8597 17.2105 25.9124 17.2144 25.9575 17.2378C26.0026 17.2611 26.0363 17.3018 26.0508 17.3505L30.5352 32.4482C30.5556 32.5167 30.5351 32.5908 30.4824 32.6391C29.6554 33.3972 29.3557 34.8412 29.9317 36.2811L29.9319 36.2817C30.6202 38.0207 32.2507 38.9268 33.538 38.4192C34.7881 37.9118 35.3555 36.1412 34.6668 34.4014C34.1639 33.1445 33.1657 32.3365 32.1555 32.1623C32.087 32.1505 32.0306 32.1016 32.0094 32.0353L25.7528 12.5622L18.267 15.2357Z" fill="#374957"/>
<path d="M64.4003 29.7735C64.4003 29.7735 61.5975 32.8752 61.4481 34.4074C61.2986 35.9396 63.8398 40.0129 63.8398 40.0129C63.8398 40.0129 58.6453 43.2268 53.7124 40.9846C48.7795 38.7424 46.3878 29.1755 46.3878 29.1755C46.3878 29.1755 52.2923 31.9783 54.5346 31.9783C56.8141 32.0157 64.4003 29.7735 64.4003 29.7735Z" fill="#374957"/>
<path fill-rule="evenodd" clip-rule="evenodd" d="M46.4679 29.0068L46.3878 29.1756L46.2065 29.2209C46.189 29.1508 46.2135 29.0769 46.2694 29.0311C46.3253 28.9853 46.4026 28.9758 46.4679 29.0068ZM64.4003 29.7736L64.3473 29.5944C64.4276 29.5706 64.5139 29.6032 64.5584 29.674C64.603 29.7449 64.5951 29.8367 64.5389 29.8988L64.4003 29.7736ZM63.8448 30.129C63.6706 30.1788 63.4635 30.2376 63.2298 30.3032C62.4821 30.5131 61.461 30.7926 60.3684 31.0711C59.2761 31.3494 58.1105 31.6271 57.0742 31.8329C56.0437 32.0376 55.1251 32.1747 54.533 32.1653C53.9431 32.1649 53.1318 31.9825 52.2616 31.7193C51.3856 31.4544 50.4318 31.1019 49.5511 30.7506C48.6699 30.399 47.8593 30.0476 47.2692 29.7842C47.0314 29.678 46.8293 29.5861 46.6726 29.5141C46.6751 29.5227 46.6775 29.5315 46.68 29.5403C46.7545 29.8043 46.8665 30.1845 47.0164 30.648C47.3161 31.5752 47.7668 32.8342 48.3704 34.162C48.9742 35.4905 49.729 36.8833 50.6358 38.0808C51.5436 39.2795 52.5953 40.2717 53.7897 40.8146C56.2016 41.9109 58.6845 41.6763 60.5767 41.1594C61.5215 40.9013 62.3147 40.5739 62.8713 40.3112C63.1494 40.1799 63.3682 40.0649 63.5168 39.9831C63.5397 39.9704 63.561 39.9586 63.5806 39.9476C63.5774 39.9424 63.5742 39.9371 63.571 39.9317C63.5013 39.8165 63.402 39.6505 63.2835 39.4465C63.0465 39.0388 62.7317 38.4786 62.4214 37.8697C62.1114 37.2615 61.804 36.6011 61.5831 35.9936C61.3651 35.3942 61.2203 34.8177 61.2621 34.3893C61.3034 33.9657 61.5232 33.4563 61.8094 32.9457C62.0986 32.4297 62.4682 31.8912 62.8303 31.4044C63.1929 30.9171 63.5504 30.4784 63.8171 30.1618C63.8265 30.1507 63.8357 30.1397 63.8448 30.129ZM63.8397 40.013L63.9983 39.9141L63.9966 39.9114L63.9913 39.9029L63.9704 39.869C63.9521 39.8392 63.9251 39.7951 63.8907 39.7383C63.822 39.6247 63.7239 39.4606 63.6066 39.2587C63.3718 38.8548 63.0606 38.3009 62.7543 37.7C62.4477 37.0983 62.1478 36.4531 61.9343 35.8659C61.7178 35.2706 61.6011 34.7634 61.634 34.4256C61.6674 34.0831 61.854 33.6303 62.1354 33.1284C62.4137 32.6319 62.7729 32.1076 63.1301 31.6275C63.4869 31.1479 63.8395 30.7153 64.1029 30.4025C64.2346 30.2462 64.3439 30.12 64.4201 30.033C64.4582 29.9895 64.4881 29.9558 64.5083 29.933L64.5313 29.9073L64.5371 29.9008L64.5389 29.8988L64.4003 29.7736C64.3473 29.5944 64.3474 29.5943 64.3473 29.5944L64.3258 29.6007L64.2621 29.6194C64.2062 29.6357 64.1237 29.6598 64.018 29.6903C63.8065 29.7514 63.5017 29.8387 63.1288 29.9434C62.383 30.1528 61.365 30.4315 60.2761 30.7089C59.1869 30.9865 58.0285 31.2623 57.0013 31.4664C55.9692 31.6714 55.0854 31.8006 54.5376 31.7916L54.5345 31.7915C54.0034 31.7915 53.2365 31.6237 52.3697 31.3616C51.508 31.101 50.5652 30.7528 49.6896 30.4035C48.8143 30.0543 48.0086 29.705 47.4216 29.4429C47.1281 29.3119 46.8895 29.2028 46.7243 29.1264C46.6417 29.0883 46.5775 29.0583 46.534 29.0379L46.4845 29.0147L46.4679 29.0068C46.4679 29.0068 46.4679 29.0068 46.3878 29.1756C46.2065 29.2209 46.2065 29.2208 46.2065 29.2209L46.207 29.223L46.2084 29.2285L46.2138 29.2497C46.2186 29.2683 46.2258 29.2957 46.2352 29.3315C46.2542 29.403 46.2826 29.5078 46.3204 29.6418C46.3959 29.9098 46.5093 30.2945 46.6608 30.763C46.9636 31.6996 47.4192 32.9725 48.0301 34.3166C48.6408 35.6601 49.4088 37.0795 50.3379 38.3064C51.266 39.532 52.363 40.5765 53.6351 41.1548C56.1561 42.3007 58.7369 42.0494 60.6751 41.5199C61.6455 41.2548 62.4593 40.9189 63.0308 40.6491C63.3167 40.5142 63.5423 40.3956 63.697 40.3104C63.7744 40.2678 63.834 40.2336 63.8746 40.2098C63.8823 40.2053 63.8893 40.2012 63.8956 40.1975C63.906 40.1913 63.9145 40.1862 63.9211 40.1822L63.9333 40.1748L63.9366 40.1728L63.9376 40.1722C63.9377 40.1722 63.9381 40.1719 63.8397 40.013ZM63.8397 40.013L63.9381 40.1719C63.9803 40.1458 64.0104 40.1039 64.0217 40.0555C64.033 40.0072 64.0246 39.9563 63.9983 39.9141L63.8397 40.013Z" fill="#374957"/>
<path d="M53.7125 40.9844C52.3672 40.3491 51.2087 39.1906 50.1997 37.8079C50.3866 37.21 50.7603 36.7615 51.4329 36.612C54.3852 36.0515 57.4869 39.2653 57.4869 39.2653C57.4869 39.2653 57.8233 40.0127 57.9727 41.7318C56.6274 41.8439 55.17 41.657 53.7125 40.9844Z" fill="#FFE07D"/>
<path fill-rule="evenodd" clip-rule="evenodd" d="M51.4708 36.7952C50.9118 36.9203 50.5864 37.2736 50.4076 37.7754C51.3938 39.1109 52.5114 40.2104 53.7917 40.8152C55.149 41.4415 56.5058 41.637 57.7691 41.5593C57.6948 40.8077 57.5854 40.2622 57.4928 39.9003C57.4428 39.7046 57.3976 39.5626 57.3655 39.4707C57.3496 39.4252 57.3369 39.392 57.3284 39.3707C57.3257 39.3679 57.3227 39.3649 57.3194 39.3617C57.2969 39.3392 57.263 39.3058 57.2187 39.2634C57.1301 39.1784 56.9996 39.0572 56.8337 38.9131C56.5017 38.6248 56.029 38.2465 55.4663 37.8859C54.3334 37.1599 52.8734 36.5301 51.4708 36.7952ZM57.487 39.2654C57.6574 39.1888 57.6574 39.1888 57.6575 39.1889L57.6577 39.1894L57.6581 39.1902L57.6592 39.1928L57.6628 39.2013C57.6659 39.2084 57.6701 39.2186 57.6753 39.2317C57.6858 39.258 57.7005 39.2964 57.7183 39.3475C57.7539 39.4495 57.8022 39.6017 57.8549 39.8077C57.9603 40.2197 58.0834 40.8464 58.159 41.7157C58.1633 41.7652 58.1477 41.8144 58.1157 41.8523C58.0837 41.8903 58.0378 41.914 57.9883 41.9181C56.6142 42.0326 55.124 41.8417 53.6343 41.1541L53.6328 41.1535C52.2474 40.4992 51.0666 39.3129 50.0489 37.9181C50.014 37.8703 50.0038 37.8088 50.0214 37.7523C50.2234 37.1059 50.6402 36.5969 51.3925 36.4297L51.3982 36.4286C52.9469 36.1345 54.5127 36.831 55.6679 37.5713C56.2497 37.9441 56.737 38.3342 57.0787 38.631C57.2498 38.7794 57.3847 38.9049 57.4772 38.9935C57.5235 39.0379 57.5592 39.073 57.5835 39.0973C57.5956 39.1094 57.6049 39.1188 57.6113 39.1253L57.6186 39.1328L57.6206 39.1348L57.6212 39.1354C57.6212 39.1355 57.6215 39.1357 57.487 39.2654ZM57.487 39.2654L57.6215 39.1357C57.6364 39.1512 57.6486 39.1693 57.6575 39.1889L57.487 39.2654Z" fill="#374957"/>
<path d="M57.786 38.4808C60.103 38.3687 61.7099 37.5839 62.3078 37.2476C62.9805 38.705 63.84 40.0503 63.84 40.0503C63.84 40.0503 58.6456 43.2642 53.7127 41.022C52.4421 40.424 51.3583 39.3777 50.4241 38.1071C51.5452 38.2192 55.3196 38.5929 57.786 38.4808Z" fill="white"/>
<path fill-rule="evenodd" clip-rule="evenodd" d="M62.3649 37.0696C62.4145 37.0857 62.4551 37.1217 62.477 37.1691C62.8101 37.8909 63.1902 38.5863 63.4875 39.102C63.6361 39.3596 63.7637 39.5719 63.8541 39.7197C63.8993 39.7935 63.9351 39.8512 63.9596 39.8904C63.9719 39.9099 63.9813 39.9248 63.9876 39.9348L63.9947 39.946L63.9969 39.9494C64.0238 39.9916 64.0328 40.0429 64.0217 40.0917C64.0106 40.1405 63.9804 40.1828 63.9378 40.2091L63.8395 40.0502C63.9378 40.2091 63.9379 40.209 63.9378 40.2091L63.9364 40.2099L63.9331 40.212L63.9209 40.2194C63.9103 40.2258 63.8947 40.2351 63.8744 40.2469C63.8338 40.2707 63.7741 40.305 63.6968 40.3476C63.5421 40.4327 63.3164 40.5513 63.0306 40.6863C62.459 40.9561 61.6453 41.292 60.6749 41.5571C58.7366 42.0866 56.1558 42.3378 53.6348 41.1919L53.6326 41.1909C52.3238 40.575 51.2177 39.5024 50.273 38.2176C50.2293 38.1581 50.2247 38.0785 50.2612 38.0144C50.2978 37.9502 50.3687 37.9136 50.4421 37.921C51.5668 38.0335 55.3266 38.4053 57.7768 38.294C60.0557 38.1836 61.634 37.4117 62.2157 37.0845C62.2612 37.059 62.3152 37.0536 62.3649 37.0696ZM63.5788 39.9856C63.5655 39.9639 63.5509 39.9402 63.5353 39.9147C63.4435 39.7646 63.3142 39.5495 63.1638 39.2887C62.8879 38.8102 62.5401 38.1762 62.2223 37.5064C61.5043 37.8852 59.9511 38.5629 57.7945 38.6673L57.794 38.6673C55.5671 38.7685 52.2894 38.4768 50.8311 38.335C51.6932 39.4352 52.6714 40.3253 53.7906 40.8522C56.2021 41.9479 58.6845 41.7134 60.5764 41.1966C61.5213 40.9385 62.3144 40.6111 62.871 40.3483C63.1492 40.217 63.3679 40.102 63.5166 40.0202C63.5389 40.0079 63.5597 39.9963 63.5788 39.9856Z" fill="#374957"/>
<path d="M54.5346 32.0157C56.7768 32.0157 64.363 29.7734 64.363 29.7734C64.363 29.7734 62.7561 31.5299 61.8965 33.062C60.028 33.8094 56.7394 34.9679 54.0861 34.9679C51.6944 34.9679 49.228 34.1458 47.6584 33.062C46.7989 30.9319 46.3505 29.2129 46.3505 29.2129C46.3505 29.2129 52.2923 32.0157 54.5346 32.0157Z" fill="white"/>
<path fill-rule="evenodd" clip-rule="evenodd" d="M46.4301 29.044L46.3504 29.213L46.1696 29.2601C46.1513 29.1899 46.1753 29.1155 46.2311 29.0692C46.2869 29.0229 46.3645 29.013 46.4301 29.044ZM64.3629 29.7735L64.31 29.5943C64.3905 29.5706 64.4769 29.6033 64.5214 29.6745C64.5659 29.7457 64.5574 29.8377 64.5008 29.8997L64.4965 29.9044L64.4832 29.919C64.4715 29.932 64.4541 29.9513 64.4315 29.9765C64.3864 30.027 64.3208 30.1009 64.2394 30.1946C64.0765 30.3818 63.8503 30.6475 63.5974 30.9606C63.0903 31.5887 62.4815 32.4012 62.0595 33.1535C62.0386 33.1908 62.0055 33.2197 61.9659 33.2356C60.0978 33.9829 56.7791 35.1549 54.0861 35.1549C51.6577 35.1549 49.154 34.3218 47.5522 33.2159C47.5221 33.1951 47.4988 33.166 47.4851 33.132C47.0531 32.0615 46.7245 31.0944 46.5039 30.395C46.3936 30.0451 46.3101 29.762 46.2542 29.5661C46.2263 29.4682 46.2052 29.392 46.1911 29.3401C46.184 29.3142 46.1787 29.2944 46.1751 29.2809L46.1711 29.2656L46.17 29.2616L46.1696 29.2601C46.1696 29.2601 46.1696 29.2601 46.3504 29.213C46.4301 29.044 46.4301 29.044 46.4301 29.044L46.4469 29.0518L46.4966 29.0751C46.5404 29.0955 46.605 29.1254 46.6881 29.1636C46.8543 29.24 47.0945 29.3491 47.3897 29.4801C47.9802 29.7422 48.7907 30.0915 49.6706 30.4407C50.5509 30.79 51.4984 31.1383 52.3637 31.3989C53.2341 31.6611 54.0034 31.8289 54.5345 31.8289C55.074 31.8289 55.9516 31.6927 56.9787 31.4824C58.0009 31.273 59.156 30.9936 60.243 30.7137C61.3296 30.4339 62.3466 30.154 63.0919 29.944C63.4645 29.8391 63.7692 29.7516 63.9806 29.6904C64.0864 29.6598 64.1688 29.6358 64.2247 29.6194L64.2884 29.6007L64.31 29.5943C64.31 29.5943 64.31 29.5943 64.3629 29.7735ZM63.8007 30.1311C63.628 30.1806 63.4236 30.2388 63.1932 30.3037C62.4461 30.5142 61.4263 30.7949 60.3362 31.0756C59.2463 31.3562 58.0845 31.6374 57.0536 31.8485C56.0277 32.0586 55.1162 32.2026 54.5345 32.2026C53.9446 32.2026 53.1303 32.0201 52.2559 31.7567C51.3765 31.4918 50.4181 31.1394 49.5327 30.788C48.6469 30.4365 47.8317 30.0851 47.2381 29.8217C46.9994 29.7158 46.7965 29.624 46.6391 29.5522C46.6929 29.7384 46.7668 29.9861 46.8603 30.2825C47.0752 30.9637 47.3934 31.9012 47.8106 32.9399C49.3502 33.9859 51.7545 34.7812 54.0861 34.7812C56.6715 34.7812 59.8881 33.6607 61.7662 32.9129C62.2018 32.1499 62.808 31.3434 63.3067 30.7259C63.4896 30.4993 63.6588 30.2973 63.8007 30.1311Z" fill="#374957"/>
<path d="M55.1326 25.5508C55.1326 25.5508 54.2731 22.5985 51.9188 22.3369C49.527 22.038 48.817 23.757 48.817 23.757C48.817 23.757 53.3015 23.7196 55.1326 25.5508Z" fill="#374957"/>
<path fill-rule="evenodd" clip-rule="evenodd" d="M48.395 28.2899C48.4301 28.3869 48.3798 28.494 48.2828 28.5291L44.77 29.7997C44.6729 29.8348 44.5658 29.7846 44.5307 29.6876C44.4956 29.5905 44.5458 29.4834 44.6429 29.4483L48.1557 28.1777C48.2527 28.1426 48.3599 28.1928 48.395 28.2899Z" fill="#374957"/>
<path d="M59.4164 20.785C59.0304 20.8537 58.861 21.7165 59.0382 22.7121C59.2154 23.7078 59.672 24.4592 60.0581 24.3905C60.4441 24.3218 60.6134 23.459 60.4363 22.4633C60.2591 21.4677 59.8025 20.7163 59.4164 20.785Z" fill="#374957"/>
<path d="M54.5348 22.0378C54.5348 22.0378 54.6843 20.3561 51.022 20.3561C47.3597 20.3561 46.6497 19.945 48.0698 18.1139C49.4898 16.2827 55.3944 17.2544 54.5348 22.0378Z" fill="#374957"/>
<path d="M55.9549 16.9556C55.9549 16.9556 56.2539 14.5639 58.4961 14.5639C60.7383 14.5639 62.0089 17.2172 62.1584 16.395C62.3079 15.5355 61.4484 12.5832 58.3466 12.3216C55.2449 12.0601 55.9549 16.9556 55.9549 16.9556Z" fill="#374957"/>
<path fill-rule="evenodd" clip-rule="evenodd" d="M40.1848 14.8412C40.2793 14.8825 40.3224 14.9927 40.281 15.0872C39.7683 16.2591 39.3979 17.8076 39.2122 19.7753C38.9904 22.3089 39.3857 25.9548 40.1105 30.0129C40.8345 34.0667 41.8842 38.5156 42.9626 42.6472C44.041 46.7785 45.1474 50.5902 45.9843 53.3693C46.4027 54.7588 46.7537 55.89 47 56.6737C47.1232 57.0656 47.2202 57.3706 47.2864 57.5775C47.3195 57.681 47.3449 57.76 47.362 57.813L47.3878 57.8928C47.3879 57.893 47.3879 57.8931 47.2102 57.9509C47.0325 58.0086 47.0325 58.0085 47.0324 58.0083L47.0064 57.9277C46.9892 57.8744 46.9637 57.7951 46.9305 57.6914C46.8641 57.4839 46.7669 57.1783 46.6435 56.7858C46.3968 56.0008 46.0453 54.8682 45.6264 53.4771C44.7886 50.695 43.6809 46.8786 42.601 42.7416C41.5213 38.6051 40.469 34.1458 39.7426 30.0786C39.017 26.0159 38.6135 22.3282 38.84 19.7421L38.8401 19.7408C39.0281 17.7476 39.4051 16.1571 39.9387 14.9374C39.98 14.8429 40.0902 14.7998 40.1848 14.8412ZM47.2102 57.9509L47.0324 58.0083C47.0643 58.1064 47.1698 58.1605 47.268 58.1286C47.3661 58.0967 47.4197 57.991 47.3878 57.8928L47.2102 57.9509Z" fill="#374957"/>
<path fill-rule="evenodd" clip-rule="evenodd" d="M43.6224 10.9015C43.5575 10.7263 43.5574 10.7263 43.5573 10.7263L43.5571 10.7264L43.5567 10.7265L43.5557 10.727L43.5524 10.7282L43.5416 10.7324C43.5325 10.7361 43.5197 10.7413 43.5033 10.7483C43.4707 10.7623 43.4241 10.7833 43.3655 10.8123C43.2482 10.8703 43.0827 10.9605 42.8843 11.0911C42.4874 11.3525 41.9591 11.7757 41.4227 12.427C41.3571 12.5067 41.3685 12.6244 41.4482 12.69C41.5279 12.7556 41.6456 12.7442 41.7112 12.6646C42.2213 12.0453 42.7206 11.6464 43.0898 11.4032C43.2745 11.2816 43.4266 11.199 43.5312 11.1472C43.5835 11.1213 43.6239 11.1032 43.6506 11.0918C43.6639 11.0861 43.6738 11.0821 43.6799 11.0796L43.6864 11.077L43.6874 11.0767L43.6874 11.0767L43.6875 11.0766L43.6875 11.0766C43.7841 11.0407 43.8334 10.9333 43.7976 10.8366C43.7617 10.7398 43.6542 10.6904 43.5575 10.7263L43.6224 10.9015Z" fill="#374957"/>
<path fill-rule="evenodd" clip-rule="evenodd" d="M11.7915 52.8622C11.8773 52.805 11.9934 52.8282 12.0506 52.914L13.5453 55.1561L13.3899 55.2599L13.2345 55.3635L11.7397 53.1213C11.6824 53.0355 11.7056 52.9195 11.7915 52.8622ZM13.4936 55.4154C13.4077 55.4726 13.2917 55.4494 13.2345 55.3635L13.3899 55.2599L13.5453 55.1561C13.6025 55.242 13.5794 55.3581 13.4936 55.4154Z" fill="#374957"/>
<path fill-rule="evenodd" clip-rule="evenodd" d="M10.3458 20.8661C10.4356 20.8152 10.5496 20.8468 10.6004 20.9367C10.6512 21.0265 10.6196 21.1405 10.5298 21.1913L10.5289 21.1918L10.5256 21.1937L10.5118 21.2017C10.4994 21.2088 10.4807 21.2197 10.4562 21.2341C10.4073 21.2631 10.3349 21.3065 10.2422 21.3639C10.0567 21.4788 9.79012 21.6495 9.46707 21.8721C8.82071 22.3175 7.94977 22.9696 7.05149 23.7961C5.24976 25.4539 3.36256 27.791 2.92403 30.5501C2.19246 35.1529 3.51777 37.9246 4.74509 40.4914C5.00452 41.0339 5.25958 41.5673 5.4899 42.107C5.85761 42.9711 6.67288 44.4084 7.65473 46.0308C8.63435 47.6495 9.77305 49.4416 10.7818 51.0108C10.8376 51.0976 10.8125 51.2132 10.7257 51.269C10.6389 51.3248 10.5233 51.2997 10.4675 51.2129C9.45823 49.6429 8.31733 47.8474 7.33501 46.2243C6.35492 44.6048 5.52581 43.1458 5.14611 42.2535C4.92271 41.7301 4.67237 41.2073 4.41567 40.6713C3.18314 38.0975 1.80384 35.2172 2.55495 30.4914C3.01331 27.6076 4.97526 25.1986 6.79845 23.5211C7.71264 22.68 8.5981 22.0171 9.25503 21.5644C9.58362 21.338 9.85538 21.1639 10.0454 21.0462C10.1404 20.9874 10.215 20.9426 10.2661 20.9124C10.2917 20.8973 10.3113 20.8859 10.3247 20.8781L10.3401 20.8693L10.3441 20.867L10.3453 20.8663L10.3458 20.8661C10.3459 20.866 10.3458 20.8661 10.4378 21.0287L10.3458 20.8661Z" fill="#374957"/>
<path d="M63.4662 42.8904C63.4662 42.8904 61.4482 44.9084 56.8517 44.4226C56.8891 44.3852 61.4482 46.4406 63.4662 42.8904Z" fill="#374957"/>
<path d="M104.536 41.246C104.536 41.246 92.6523 35.0052 70.9402 38.817C68.8474 39.1907 66.8668 37.808 66.4931 35.7152L66.1941 33.9588C65.8952 32.2398 66.7921 30.5208 68.399 29.7733C74.154 27.1948 87.57 20.0197 94.633 6.67847L104.536 41.246Z" fill="#FFE07D"/>
<path fill-rule="evenodd" clip-rule="evenodd" d="M94.6717 6.30671C94.8234 6.32253 94.9502 6.4289 94.9922 6.57548L104.895 41.1431C104.937 41.2869 104.888 41.4414 104.772 41.5358C104.656 41.6302 104.495 41.6464 104.363 41.5769L104.362 41.5769L104.362 41.5768L104.361 41.5764L104.356 41.5737C104.351 41.5712 104.344 41.5672 104.333 41.5618C104.311 41.551 104.279 41.5346 104.234 41.5131C104.146 41.4701 104.011 41.4067 103.831 41.3268C103.472 41.167 102.931 40.9415 102.213 40.6818C100.777 40.1626 98.632 39.507 95.8102 38.9691C90.1675 37.8934 81.8142 37.2873 71.005 39.1849C68.7091 39.5945 66.535 38.0762 66.1252 35.7809L66.1246 35.7779L66.1246 35.7779L65.8259 34.0228C65.8259 34.0226 65.8258 34.0224 65.8258 34.0222C65.498 32.1356 66.4826 30.2525 68.2413 29.4344L68.2461 29.4322L68.2461 29.4322C73.9805 26.863 87.2998 19.7312 94.3027 6.50355C94.374 6.36879 94.5201 6.29089 94.6717 6.30671ZM103.952 40.5636L94.5251 7.6588C87.2999 20.595 74.215 27.5766 68.5542 30.1132C67.1008 30.7905 66.2926 32.3442 66.5623 33.8947L66.5625 33.8961L66.8609 35.6495C66.861 35.65 66.8611 35.6504 66.8612 35.6509C67.1993 37.54 68.9857 38.7863 70.8744 38.449L70.8755 38.4488C81.7784 36.5347 90.223 37.1432 95.9502 38.2349C98.8133 38.7807 100.996 39.4472 102.467 39.979C103.091 40.2046 103.587 40.406 103.952 40.5636Z" fill="#374957"/>
<path fill-rule="evenodd" clip-rule="evenodd" d="M93.5701 13.7652C93.6808 13.591 93.9117 13.5394 94.0859 13.6501C94.2601 13.7608 94.3116 13.9917 94.201 14.1659L93.8855 13.9655C94.201 14.1659 94.2011 14.1658 94.201 14.1659L94.1994 14.1683L94.1958 14.174L94.1822 14.1951C94.1702 14.2135 94.1527 14.2403 94.1297 14.2752C94.0835 14.3448 94.0151 14.4465 93.925 14.5766C93.7447 14.8368 93.4773 15.2106 93.1266 15.6688C92.4253 16.585 91.3898 17.8398 90.0502 19.1982C87.3743 21.9118 83.468 25.0563 78.5722 26.7262C78.3769 26.7928 78.1645 26.6885 78.0979 26.4931C78.0312 26.2978 78.1356 26.0854 78.3309 26.0188C83.0767 24.4001 86.8874 21.3411 89.518 18.6734C90.8318 17.3412 91.847 16.1108 92.5331 15.2145C92.876 14.7665 93.1365 14.4023 93.3106 14.1509C93.3977 14.0253 93.4632 13.9279 93.5066 13.8624C93.5283 13.8296 93.5445 13.8048 93.5551 13.7885L93.5668 13.7703L93.5695 13.7661L93.5701 13.7652Z" fill="white"/>
<path d="M68.3615 29.8108C70.6785 28.7644 74.1913 27.008 78.0404 24.3921C77.0314 27.6433 76.7325 32.5388 80.9179 37.6586C77.8536 37.808 74.5276 38.1818 70.9027 38.817C68.8099 39.1908 66.8293 37.808 66.4556 35.7153L66.1567 33.9589C65.8577 32.2399 66.7546 30.5208 68.3615 29.8108Z" fill="#374957"/>
<path fill-rule="evenodd" clip-rule="evenodd" d="M78.1517 24.2418C78.2155 24.289 78.2425 24.3715 78.219 24.4473C77.2241 27.6531 76.9256 32.4796 81.0627 37.5401C81.1073 37.5948 81.1174 37.6699 81.0888 37.7343C81.0601 37.7988 80.9976 37.8416 80.9271 37.845C77.8714 37.9941 74.5534 38.3668 70.9355 39.0009C68.741 39.3926 66.6636 37.9421 66.2718 35.748L66.2715 35.7465L65.9726 33.9908C65.9726 33.9906 65.9726 33.9905 65.9726 33.9904C65.6594 32.1888 66.599 30.3855 68.2853 29.64C70.5955 28.5967 74.098 26.8454 77.9355 24.2374C78.0012 24.1928 78.0879 24.1945 78.1517 24.2418ZM77.7167 24.8353C74.025 27.3 70.6759 28.9705 68.4385 29.9809L68.4371 29.9815L68.4371 29.9815C66.9101 30.6563 66.0563 32.2907 66.3408 33.9267L66.3409 33.9274L66.6396 35.6823C66.6397 35.6825 66.6397 35.6828 66.6398 35.683C66.9957 37.6739 68.8792 38.9884 70.8699 38.6329L70.8705 38.6328C74.359 38.0215 77.5724 37.6517 80.5439 37.4906C76.751 32.6698 76.8378 28.0588 77.7167 24.8353Z" fill="#374957"/>
<path d="M96.4133 3.45717C92.2374 4.76325 91.5989 14.6046 94.9873 25.4385C98.3758 36.2724 104.508 43.9961 108.684 42.6901C112.86 41.384 113.498 31.5426 110.11 20.7087C106.721 9.87488 100.589 2.15109 96.4133 3.45717Z" fill="#374957"/>
<path fill-rule="evenodd" clip-rule="evenodd" d="M112.047 35.2602C112.304 31.3106 111.621 26.1653 109.932 20.7645C108.243 15.3638 105.872 10.7464 103.411 7.64667C102.18 6.09627 100.933 4.93353 99.7447 4.23956C98.5566 3.54564 97.446 3.33006 96.4694 3.63551C95.4927 3.94095 94.7028 4.75096 94.1219 5.99814C93.5409 7.24541 93.1786 8.91155 93.0504 10.887C92.7942 14.8366 93.4768 19.982 95.1659 25.3827C96.8551 30.7834 99.2259 35.4008 101.687 38.5006C102.918 40.051 104.165 41.2137 105.353 41.9077C106.541 42.6016 107.652 42.8172 108.628 42.5117C109.605 42.2063 110.395 41.3963 110.976 40.1491C111.557 38.9018 111.919 37.2357 112.047 35.2602ZM111.315 40.3069C110.707 41.6109 109.851 42.5208 108.74 42.8684C107.629 43.216 106.407 42.9559 105.165 42.2304C103.923 41.5049 102.642 40.3045 101.394 38.7329C98.898 35.5889 96.5086 30.9274 94.8093 25.4943C93.11 20.0611 92.4176 14.8689 92.6775 10.8628C92.8074 8.86044 93.1758 7.14423 93.7832 5.84035C94.3905 4.53638 95.2464 3.62644 96.3578 3.27884C97.4692 2.93125 98.691 3.19136 99.9331 3.91687C101.175 4.64234 102.456 5.84278 103.704 7.4143C106.2 10.5584 108.589 15.2198 110.288 20.653C111.988 26.0861 112.68 31.2783 112.42 35.2844C112.29 37.2868 111.922 39.003 111.315 40.3069Z" fill="#374957"/>
<path d="M97.5033 5.27512C93.997 6.37173 93.6269 15.165 96.6764 24.9155C99.726 34.666 105.041 41.6813 108.547 40.5847C112.053 39.4881 112.423 30.6948 109.374 20.9443C106.324 11.1938 101.01 4.1785 97.5033 5.27512Z" fill="white"/>
<path fill-rule="evenodd" clip-rule="evenodd" d="M111.232 34.0019C111.381 30.4743 110.716 25.8603 109.195 21.0001C107.675 16.1399 105.593 11.9692 103.461 9.15489C102.394 7.74707 101.322 6.68713 100.309 6.04764C99.2949 5.40762 98.3634 5.20192 97.5592 5.45345C96.755 5.70498 96.1067 6.40474 95.6382 7.50842C95.17 8.61118 94.8926 10.0934 94.8183 11.858C94.6698 15.3855 95.3348 19.9995 96.8549 24.8597C98.375 29.72 100.457 33.8907 102.589 36.705C103.656 38.1128 104.729 39.1727 105.742 39.8122C106.755 40.4522 107.687 40.6579 108.491 40.4064C109.295 40.1549 109.944 39.4551 110.412 38.3514C110.88 37.2487 111.158 35.7665 111.232 34.0019ZM110.756 38.4975C110.264 39.6556 109.552 40.4663 108.603 40.7631C107.654 41.0598 106.606 40.7998 105.542 40.1282C104.477 39.456 103.373 38.3584 102.292 36.9306C100.127 34.0738 98.0277 29.8616 96.4983 24.9713C94.9688 20.081 94.2941 15.4231 94.4449 11.8423C94.5202 10.0527 94.8021 8.5215 95.2942 7.36239C95.7859 6.2042 96.4987 5.39357 97.4477 5.09679C98.3966 4.80001 99.4443 5.06 100.508 5.73163C101.573 6.4038 102.677 7.50148 103.759 8.92923C105.923 11.7861 108.023 15.9983 109.552 20.8885C111.082 25.7788 111.756 30.4367 111.605 34.0176C111.53 35.8072 111.248 37.3383 110.756 38.4975Z" fill="#374957"/>
<path d="M95.2682 19.347L98.7436 19.1602L101.36 28.0543L98.5941 30.0349C97.8841 28.428 97.2488 26.709 96.6883 24.9152C96.0903 23.0093 95.6045 21.1034 95.2682 19.347Z" fill="#374957"/>
<path fill-rule="evenodd" clip-rule="evenodd" d="M98.7336 18.9734C98.8201 18.9688 98.8984 19.0242 98.9229 19.1073L101.539 28.0014C101.561 28.0777 101.533 28.1598 101.468 28.2061L98.7029 30.1867C98.6572 30.2194 98.5991 30.2298 98.5449 30.215C98.4906 30.2002 98.4459 30.1617 98.4232 30.1103C97.71 28.4961 97.0723 26.7704 96.5099 24.9709M95.4925 19.5219L98.606 19.3545L101.143 27.9795L98.6727 29.7487C98.003 28.2096 97.4009 26.569 96.8666 24.8593L96.8665 24.8591C96.2943 23.0352 95.8254 21.212 95.4925 19.5219ZM98.7336 18.9734L95.2581 19.1603ZM95.2581 19.1603C95.2042 19.1632 95.1542 19.1892 95.121 19.2317ZM95.121 19.2317C95.0877 19.2742 95.0745 19.329 95.0846 19.382ZM95.0846 19.382C95.4224 21.1461 95.9101 23.0589 96.5099 24.9708Z" fill="#374957"/>
<path d="M98.7352 19.1395C97.9031 19.3827 97.8105 21.5713 98.5284 24.0279C99.2463 26.4845 100.503 28.2789 101.335 28.0357C102.167 27.7926 102.259 25.604 101.542 23.1474C100.824 20.6907 99.5673 18.8964 98.7352 19.1395Z" fill="white"/>
<path fill-rule="evenodd" clip-rule="evenodd" d="M101.833 26.4137C101.869 25.5544 101.717 24.4139 101.362 23.1998C101.007 21.9856 100.521 20.9427 100.028 20.2382C99.7808 19.8851 99.5379 19.6259 99.3164 19.4707C99.0931 19.3142 98.9183 19.2807 98.7875 19.3189C98.6568 19.3571 98.5275 19.4795 98.4236 19.7316C98.3205 19.9817 98.2554 20.3309 98.2372 20.7615C98.2008 21.6208 98.3529 22.7613 98.7077 23.9755C99.0625 25.1896 99.5484 26.2325 100.042 26.937C100.289 27.2901 100.532 27.5493 100.753 27.7045C100.977 27.861 101.152 27.8946 101.282 27.8564C101.413 27.8182 101.542 27.6958 101.646 27.4436C101.749 27.1936 101.814 26.8443 101.833 26.4137ZM101.992 27.586C101.867 27.8894 101.672 28.1317 101.387 28.2151C101.102 28.2985 100.808 28.1989 100.539 28.0106C100.268 27.8209 99.9963 27.5236 99.7356 27.1514C99.2132 26.4054 98.712 25.3228 98.3489 24.0803C97.9859 22.8378 97.8253 21.6557 97.8638 20.7458C97.883 20.2918 97.9521 19.8947 98.078 19.5892C98.2031 19.2859 98.3974 19.0435 98.6827 18.9602C98.968 18.8768 99.2622 18.9764 99.5309 19.1647C99.8015 19.3543 100.074 19.6516 100.334 20.0238C100.857 20.7699 101.358 21.8525 101.721 23.0949C102.084 24.3374 102.245 25.5195 102.206 26.4295C102.187 26.8835 102.118 27.2805 101.992 27.586Z" fill="#374957"/>
<path d="M58.7945 68.5637C60.7378 67.6668 76.5828 39.4522 77.4797 37.92C78.3766 36.3878 78.115 34.183 77.2181 32.1276C76.3212 30.0723 76.3212 26.1857 76.8444 25.4383C77.3676 24.6536 78.9372 23.8688 78.9372 23.8688C78.9372 23.8688 78.6382 23.4951 78.0029 22.7103C77.3676 21.9255 75.7981 22.4487 75.7981 22.4487C74.6396 21.5518 73.5932 23.0093 73.5932 23.0093C72.3226 22.2245 71.6499 23.7193 71.6499 23.7193C71.6499 23.7193 70.9025 23.7567 70.3794 24.093C69.2956 24.803 69.4825 27.83 69.4825 27.83C69.4825 27.83 68.324 28.0916 68.0624 28.8764C67.8008 29.6612 67.8008 31.3055 68.324 32.6134C68.8472 33.884 72.061 37.7705 72.061 37.7705L56.1039 65.2004" fill="white"/>
<path fill-rule="evenodd" clip-rule="evenodd" d="M75.8663 22.0404C75.8971 22.0324 75.9312 22.024 75.9682 22.0153C76.1383 21.9755 76.375 21.9305 76.6366 21.9123C77.1293 21.8782 77.8524 21.9301 78.2936 22.4751C78.6115 22.8677 78.8452 23.1576 78.9996 23.3494C79.0768 23.4453 79.1342 23.5167 79.1722 23.5642L79.229 23.635L79.2292 23.6352C79.2997 23.7234 79.3266 23.8386 79.3024 23.9489C79.2782 24.0591 79.2055 24.1524 79.1046 24.2029M79.1046 24.2029L79.1041 24.2032L79.1014 24.2045L79.0897 24.2105C79.0791 24.2159 79.063 24.2242 79.0422 24.2351C79.0005 24.2569 78.9396 24.2893 78.8647 24.3307C78.7146 24.4136 78.5095 24.532 78.2893 24.6735C77.8326 24.9671 77.37 25.3239 77.1556 25.6456L77.1508 25.6526C77.1227 25.6927 77.0791 25.7856 77.0349 25.952C76.9925 26.1116 76.9557 26.3144 76.9273 26.5538C76.8705 27.0322 76.8496 27.6327 76.8725 28.2792C76.9185 29.5815 77.1397 31.0129 77.5609 31.9781C78.4744 34.0716 78.7904 36.421 77.8025 38.1087C77.6969 38.289 77.3826 38.8421 76.9063 39.6799C76.3764 40.6123 75.6459 41.8973 74.7798 43.4137C73.1375 46.2889 71.0113 49.9887 68.8521 53.6691C66.6934 57.3488 64.4999 61.012 62.7236 63.8128C61.8359 65.2125 61.0493 66.4016 60.4218 67.271C60.1084 67.7051 59.8306 68.0653 59.5969 68.3339C59.4802 68.468 59.3703 68.5841 59.2693 68.6767C59.1731 68.7648 59.0649 68.8506 58.9514 68.903C58.764 68.9894 58.542 68.9076 58.4555 68.7203C58.369 68.5329 58.4508 68.3108 58.6382 68.2243C58.638 68.2244 58.6411 68.223 58.6479 68.2189C58.6545 68.2148 58.6635 68.2088 58.675 68.2004C58.6984 68.1833 58.728 68.1589 58.7643 68.1257C58.8373 68.0588 58.9268 67.9653 59.0331 67.8432C59.2454 67.5992 59.5082 67.2597 59.8158 66.8335C60.4302 65.9823 61.2074 64.808 62.0924 63.4125C63.8617 60.6229 66.0499 56.9686 68.2074 53.2909C70.3645 49.614 72.4892 45.9169 74.1308 43.0429C74.9907 41.5376 75.7191 40.2561 76.25 39.3222C76.7313 38.4754 77.0502 37.9143 77.1574 37.7312C77.9632 36.3546 77.7561 34.2943 76.8759 32.277C76.4001 31.1868 76.1729 29.6473 76.1255 28.3056C76.1016 27.6302 76.1228 26.9904 76.1851 26.4657C76.2162 26.2035 76.2583 25.964 76.3126 25.76C76.3645 25.5644 76.4346 25.3739 76.5359 25.2277C76.8452 24.7658 77.4273 24.3391 77.8851 24.0448C78.0605 23.9321 78.2263 23.8334 78.3657 23.7538C78.213 23.5642 77.9964 23.2958 77.7127 22.9454C77.5186 22.7056 77.1393 22.6267 76.6883 22.6579C76.4781 22.6725 76.2827 22.7093 76.1387 22.743C76.0672 22.7597 76.0096 22.7754 75.9708 22.7867C75.9514 22.7923 75.9368 22.7967 75.9275 22.7996L75.9177 22.8027L75.9165 22.8032C75.9164 22.8032 75.9165 22.8031 75.9165 22.8032M73.5014 22.5409C73.5022 22.5401 73.503 22.5393 73.5038 22.5384C73.6337 22.4013 73.8253 22.2234 74.0644 22.0751C74.3028 21.927 74.6049 21.7983 74.95 21.7844C75.2506 21.7723 75.5616 21.8484 75.8663 22.0404M73.5014 22.5409C73.2258 22.4239 72.9597 22.3872 72.7081 22.4181C72.3749 22.4592 72.1062 22.6142 71.9045 22.7842C71.7037 22.9534 71.5568 23.1478 71.4616 23.2946C71.4451 23.32 71.43 23.3443 71.4162 23.3671C71.3382 23.3773 71.2426 23.3921 71.1365 23.4138C70.8647 23.4691 70.4953 23.5743 70.1775 23.7786L70.1748 23.7803C69.8025 24.0242 69.5751 24.4389 69.4297 24.8524C69.2813 25.2744 69.199 25.7513 69.1531 26.1887C69.1069 26.6286 69.0961 27.0432 69.0967 27.3466C69.0969 27.4238 69.0978 27.494 69.099 27.556C68.9853 27.5963 68.8469 27.6519 68.7017 27.7256C68.3523 27.9028 67.8864 28.2234 67.7081 28.7582C67.5574 29.2103 67.4919 29.8682 67.5259 30.5668C67.5601 31.2709 67.6969 32.0514 67.9772 32.7522L67.9787 32.7557C68.1266 33.1149 68.4476 33.6261 68.8213 34.1675C69.2013 34.718 69.6564 35.3285 70.0926 35.8961C70.5293 36.4643 70.9492 36.9921 71.2599 37.3778C71.4013 37.5533 71.5201 37.6995 71.6078 37.8068L55.7811 65.0124C55.6773 65.1908 55.7378 65.4196 55.9162 65.5233C56.0946 65.6271 56.3233 65.5666 56.4271 65.3882L72.3843 37.9584C72.463 37.8231 72.449 37.653 72.3492 37.5323L72.3137 37.4891C72.2902 37.4606 72.2557 37.4185 72.2115 37.3645C72.1231 37.2563 71.9961 37.1003 71.842 36.9089C71.5336 36.5262 71.1174 36.003 70.6852 35.4407C70.2526 34.8778 69.8061 34.2785 69.4364 33.7429C69.0611 33.1993 68.7846 32.749 68.6705 32.4728C68.4281 31.866 68.3035 31.1711 68.2724 30.5305C68.241 29.8838 68.3063 29.3272 68.4172 28.9945C68.5005 28.7445 68.7446 28.5419 69.0398 28.3921C69.1795 28.3213 69.3138 28.2709 69.4136 28.2384C69.4631 28.2222 69.5031 28.2107 69.5298 28.2035C69.5431 28.1999 69.553 28.1974 69.5591 28.1959L69.565 28.1945C69.5649 28.1945 69.565 28.1945 69.4827 27.83C69.8557 27.8069 69.8557 27.807 69.8557 27.807M73.8968 23.2274C73.8968 23.2274 73.8969 23.2273 73.8968 23.2274ZM73.8968 23.2274L73.8971 23.227ZM73.8971 23.227L73.903 23.2192ZM73.903 23.2192C73.9088 23.2116 73.9182 23.1994 73.931 23.1836ZM73.931 23.1836C73.9567 23.1518 73.9958 23.1058 74.0463 23.0525ZM74.0463 23.0525C74.1487 22.9444 74.2911 22.814 74.4585 22.7101ZM74.4585 22.7101C74.6264 22.6059 74.8032 22.5384 74.9801 22.5312ZM74.9801 22.5312C75.1484 22.5245 75.3456 22.5707 75.5695 22.7441ZM75.5695 22.7441C75.668 22.8204 75.7983 22.8425 75.9165 22.8032Z" fill="#374957"/>
<path fill-rule="evenodd" clip-rule="evenodd" d="M73.4593 22.8794C73.5311 22.8053 73.6494 22.8033 73.7235 22.8751C73.7977 22.9468 73.7996 23.0651 73.7279 23.1393L73.7274 23.1398L73.7253 23.142L73.7165 23.1512C73.7087 23.1594 73.6971 23.1717 73.6822 23.1877C73.6524 23.2198 73.6096 23.2666 73.5579 23.3251C73.4544 23.4424 73.3164 23.6055 73.1776 23.7898C73.0385 23.9746 72.9011 24.1773 72.797 24.3738C72.6911 24.574 72.6289 24.7507 72.6217 24.8877C72.6216 24.891 72.6213 24.8942 72.621 24.8974C72.5839 25.2491 72.5281 25.9562 72.4813 26.5782C72.458 26.8886 72.437 27.1769 72.4218 27.3875C72.4142 27.4929 72.4081 27.5788 72.4039 27.6383L72.3973 27.7307L72.2109 27.718L72.0245 27.7049L72.0311 27.6119C72.0353 27.5522 72.0415 27.4661 72.0491 27.3607C72.0643 27.1498 72.0853 26.8611 72.1087 26.5502C72.1551 25.9323 72.2111 25.2227 72.2488 24.8629C72.2615 24.6463 72.3529 24.414 72.4668 24.199C72.5834 23.9786 72.7334 23.7585 72.8791 23.565C73.0253 23.3708 73.1699 23.2 73.2778 23.0778C73.3318 23.0166 73.3768 22.9674 73.4085 22.9333C73.4243 22.9163 73.4368 22.903 73.4455 22.8939L73.4555 22.8834L73.4582 22.8806L73.4593 22.8794C73.4594 22.8794 73.4593 22.8794 73.5936 23.0094L73.4593 22.8794ZM72.2109 27.718L72.0245 27.7049C72.0173 27.8079 72.0949 27.8972 72.1978 27.9044C72.3008 27.9116 72.3901 27.834 72.3973 27.7311L72.2109 27.718Z" fill="#374957"/>
<path fill-rule="evenodd" clip-rule="evenodd" d="M71.8378 23.8303C71.899 23.7473 71.8815 23.6304 71.7986 23.5691C71.7156 23.5077 71.5986 23.5253 71.5373 23.6083L71.6836 23.7165C71.5373 23.6083 71.5373 23.6082 71.5373 23.6083L71.5369 23.6088L71.5363 23.6096L71.5344 23.6122L71.528 23.621C71.5227 23.6286 71.5151 23.6394 71.5057 23.6532C71.4869 23.681 71.4605 23.721 71.4291 23.7722C71.3663 23.8743 71.2832 24.0211 71.2001 24.2019C71.0347 24.5618 70.8654 25.0657 70.8654 25.6252C70.8654 26.1404 70.8285 26.6667 70.7914 27.0654C70.7729 27.2644 70.7544 27.431 70.7405 27.5476C70.7336 27.6059 70.7279 27.6517 70.7238 27.6828L70.7192 27.7182L70.718 27.727L70.7177 27.7297L70.9027 27.7553M71.8378 23.8303C71.8378 23.8303 71.8379 23.8303 71.8378 23.8303Z" fill="#374957"/>
<path fill-rule="evenodd" clip-rule="evenodd" d="M69.5117 27.6454C69.6137 27.6614 69.6833 27.757 69.6673 27.859L69.4827 27.8299L69.2981 27.8009C69.3142 27.699 69.4098 27.6293 69.5117 27.6454ZM69.4827 27.8299C69.2981 27.8009 69.2981 27.8009 69.2981 27.8009L69.2966 27.8108L69.2922 27.839C69.2884 27.8638 69.2829 27.9001 69.2759 27.9465C69.262 28.0393 69.2423 28.1725 69.2194 28.3346C69.1737 28.6587 69.1151 29.0985 69.0635 29.5609C69.0119 30.0229 68.967 30.51 68.9492 30.9278C68.9403 31.1367 68.9381 31.3307 68.9456 31.4971C68.9529 31.6599 68.97 31.8094 69.0056 31.9222C69.0367 32.0206 69.1416 32.0752 69.24 32.0441C69.3384 32.013 69.393 31.9081 69.3619 31.8097C69.3415 31.7449 69.3259 31.6352 69.3189 31.4803C69.3121 31.3288 69.3139 31.1465 69.3226 30.9437C69.3398 30.5382 69.3837 30.0607 69.4348 29.6024C69.486 29.1446 69.5441 28.7086 69.5895 28.3868C69.6122 28.226 69.6317 28.0939 69.6454 28.002C69.6523 27.9561 69.6578 27.9202 69.6616 27.8959L69.6658 27.8683L69.6673 27.859L69.4827 27.8299Z" fill="#374957"/>
</svg>
