<svg width="62" height="81" viewBox="0 0 62 81" fill="none" xmlns="http://www.w3.org/2000/svg">
<g clip-path="url(#clip0_43_444)">
<path fill-rule="evenodd" clip-rule="evenodd" d="M53.4325 80.2002H8.56759C3.88291 80.2002 0.0090332 76.3263 0.0090332 71.6416V8.75875C0.0090332 4.07407 3.88291 0.200195 8.56759 0.200195H53.4325C58.1171 0.200195 61.991 4.07407 61.991 8.75875V71.6416C61.991 76.3263 58.2072 80.2002 53.4325 80.2002Z" fill="#E9DEFF"/>
<path fill-rule="evenodd" clip-rule="evenodd" d="M12.5315 38.3082C21.5405 46.5965 46.7658 46.5965 55.7748 38.3082C56.0451 38.0379 56.4054 37.8577 56.7658 38.128C57.1261 38.3082 57.2162 38.7586 56.9459 39.119C54.6036 42.7226 51.2703 45.4253 47.4865 47.3172C43.3423 49.2992 38.7478 50.2902 34.1532 50.2902C29.5586 50.2902 24.964 49.2992 20.8198 47.3172C17.036 45.4253 13.6126 42.7226 11.3604 39.119C11.1802 38.7586 11.2703 38.3983 11.5405 38.128C11.9009 37.9478 12.3514 38.0379 12.5315 38.3082ZM8.20721 39.2091C8.2973 39.5695 8.65766 39.8397 9.01802 39.7496C9.37838 39.6595 9.64865 39.2992 9.55856 38.9388C9.46847 38.3082 9.64865 37.6776 10.0991 37.3172C10.5496 36.8668 11.1802 36.6866 11.7207 36.7767C12.0811 36.8668 12.4414 36.5965 12.5315 36.2361C12.6216 35.8758 12.3514 35.5154 11.991 35.4253C10.9099 35.2451 9.91892 35.6055 9.10811 36.3262C8.38739 37.137 8.11712 38.2181 8.20721 39.2091ZM58.2973 39.0289C58.2072 39.3893 58.4775 39.7496 58.8378 39.8397C59.1982 39.9298 59.5586 39.6595 59.6487 39.2992C59.8288 38.2181 59.4685 37.2271 58.7477 36.4163C58.027 35.6956 56.9459 35.3352 55.8649 35.5154C55.5045 35.6055 55.2342 35.9659 55.3243 36.3262C55.4144 36.6866 55.7748 36.9568 56.1351 36.8668C56.7658 36.7767 57.3964 36.9568 57.7568 37.4073C58.2072 37.8577 58.3874 38.3983 58.2973 39.0289Z" fill="#9875FF"/>
<path fill-rule="evenodd" clip-rule="evenodd" d="M10.8198 23.8037L10.4595 24.074C9.55858 24.7947 8.83786 25.9659 7.66669 26.8668C7.39642 27.047 7.21624 27.4073 7.12615 27.6776C7.03606 28.1281 6.6757 28.4884 6.22524 28.5785C5.86488 28.6686 5.59461 28.9389 5.41443 29.2091L4.51353 30.6506C4.06308 31.4614 2.89191 31.5515 2.26128 30.9208C1.54056 30.2902 1.63065 29.119 2.44146 28.5785L3.8829 27.6776C4.15317 27.4974 4.33335 27.2272 4.42344 26.8668C4.51353 26.3263 5.23425 25.7857 5.95497 25.8758C6.31533 25.9659 6.6757 25.7857 7.03606 25.6055C8.11714 24.7947 8.83786 23.8938 9.64867 23.1731V23.083" fill="#9875FF"/>
<path fill-rule="evenodd" clip-rule="evenodd" d="M12.4415 24.7948L9.01803 23.1732C7.84686 22.6327 7.93695 20.8309 9.19821 20.4705L34.4234 12.002C34.7838 11.912 35.1442 11.912 35.5045 12.0921L59.4685 23.3534C60.6396 23.8939 60.5496 25.6957 59.2883 26.0561L50.8198 28.8489C50.2793 29.0291 49.8288 29.5696 49.8288 30.1102L49.5586 34.3444L49.3784 36.0561C49.3784 36.5065 49.1081 36.957 48.6577 37.2273C44.6937 39.4795 40.009 41.1011 33.2523 40.8309C26.4955 40.5606 21 38.2183 18.3874 36.3264C17.9369 35.966 17.7568 35.5156 17.8469 34.975C18.027 33.5336 18.027 30.0201 18.027 28.3984C18.027 27.8579 17.6667 27.3174 17.2162 27.1372L14.0631 25.6056" fill="#9875FF"/>
<path fill-rule="evenodd" clip-rule="evenodd" d="M28.2072 64.9748V60.2901C28.2072 59.2991 29.018 58.4883 30.009 58.4883H32.2613C33.2523 58.4883 34.0631 59.2991 34.0631 60.2901V64.8847C34.0631 65.8757 34.8739 66.6865 35.8649 66.6865H39.1982L32.8919 72.9027C32.1712 73.5333 31.1802 73.5333 30.4595 72.9928L22.6216 66.9567L26.4054 66.7766C27.4865 66.7766 28.2072 65.9658 28.2072 64.9748Z" fill="#9875FF"/>
</g>
<defs>
<clipPath id="clip0_43_444">
<rect width="61.982" height="80" fill="white" transform="translate(0.0090332 0.200195)"/>
</clipPath>
</defs>
</svg>
