<svg width="15" height="15" viewBox="0 0 15 15" fill="none" xmlns="http://www.w3.org/2000/svg">
<g clip-path="url(#clip0_262_526)">
<path d="M2.96354 1.21745H3.54688V0.634115C3.54688 0.479405 3.60833 0.331032 3.71773 0.221636C3.82713 0.112239 3.9755 0.0507813 4.13021 0.0507812C4.28492 0.0507813 4.43329 0.112239 4.54269 0.221636C4.65208 0.331032 4.71354 0.479405 4.71354 0.634115V1.21745H9.38021V0.634115C9.38021 0.479405 9.44167 0.331032 9.55106 0.221636C9.66046 0.112239 9.80883 0.0507813 9.96354 0.0507812C10.1183 0.0507813 10.2666 0.112239 10.376 0.221636C10.4854 0.331032 10.5469 0.479405 10.5469 0.634115V1.21745H11.1302C11.9035 1.21837 12.6448 1.52596 13.1916 2.07274C13.7384 2.61952 14.0459 3.36085 14.0469 4.13411L14.0469 11.1341C14.0459 11.9074 13.7384 12.6487 13.1916 13.1955C12.6448 13.7423 11.9035 14.0499 11.1302 14.0508H2.96354C2.19028 14.0499 1.44895 13.7423 0.90217 13.1955C0.35539 12.6487 0.047802 11.9074 0.046875 11.1341V4.13411C0.047802 3.36085 0.35539 2.61952 0.90217 2.07274C1.44895 1.52596 2.19028 1.21837 2.96354 1.21745ZM12.8802 4.13411C12.8802 3.66999 12.6958 3.22487 12.3676 2.89668C12.0395 2.56849 11.5943 2.38411 11.1302 2.38411H2.96354C2.49941 2.38411 2.05429 2.56849 1.7261 2.89668C1.39792 3.22487 1.21354 3.66999 1.21354 4.13411V4.71745H12.8802V4.13411ZM2.96354 12.8841H11.1302C11.5943 12.8841 12.0395 12.6997 12.3676 12.3716C12.6958 12.0434 12.8802 11.5982 12.8802 11.1341V5.88411H1.21354V11.1341C1.21354 11.5982 1.39792 12.0434 1.7261 12.3716C2.05429 12.6997 2.49941 12.8841 2.96354 12.8841Z" fill="#3C4852"/>
<path d="M7.04688 9.67578C6.56363 9.67578 6.17188 9.28403 6.17188 8.80078C6.17188 8.31753 6.56363 7.92578 7.04688 7.92578C7.53012 7.92578 7.92188 8.31753 7.92188 8.80078C7.92188 9.28403 7.53012 9.67578 7.04688 9.67578Z" fill="#3C4852"/>
<path d="M9.96289 9.67578C9.47964 9.67578 9.08789 9.28403 9.08789 8.80078C9.08789 8.31753 9.47964 7.92578 9.96289 7.92578C10.4461 7.92578 10.8379 8.31753 10.8379 8.80078C10.8379 9.28403 10.4461 9.67578 9.96289 9.67578Z" fill="#3C4852"/>
<path d="M4.13086 9.67578C3.64761 9.67578 3.25586 9.28403 3.25586 8.80078C3.25586 8.31753 3.64761 7.92578 4.13086 7.92578C4.61411 7.92578 5.00586 8.31753 5.00586 8.80078C5.00586 9.28403 4.61411 9.67578 4.13086 9.67578Z" fill="#3C4852"/>
</g>
<defs>
<clipPath id="clip0_262_526">
<rect width="14" height="14" fill="white" transform="matrix(-1 0 0 1 14.0469 0.0507812)"/>
</clipPath>
</defs>
</svg>
