<svg width="25" height="25" viewBox="0 0 25 25" fill="none" xmlns="http://www.w3.org/2000/svg">
<g clip-path="url(#clip0_304_4506)">
<path d="M16.9907 8.99298C16.8032 8.80551 16.5489 8.7002 16.2837 8.7002C16.0186 8.7002 15.7642 8.80551 15.5767 8.99298L12.9907 11.579L10.4047 8.99298C10.2161 8.81082 9.96351 8.71003 9.70132 8.71231C9.43912 8.71459 9.18831 8.81976 9.0029 9.00516C8.81749 9.19057 8.71232 9.44138 8.71004 9.70358C8.70777 9.96578 8.80856 10.2184 8.99072 10.407L11.5767 12.993L8.99072 15.579C8.80856 15.7676 8.70777 16.0202 8.71004 16.2824C8.71232 16.5446 8.81749 16.7954 9.0029 16.9808C9.18831 17.1662 9.43912 17.2714 9.70132 17.2737C9.96351 17.2759 10.2161 17.1751 10.4047 16.993L12.9907 14.407L15.5767 16.993C15.7653 17.1751 16.0179 17.2759 16.2801 17.2737C16.5423 17.2714 16.7931 17.1662 16.9785 16.9808C17.1639 16.7954 17.2691 16.5446 17.2714 16.2824C17.2737 16.0202 17.1729 15.7676 16.9907 15.579L14.4047 12.993L16.9907 10.407C17.1782 10.2195 17.2835 9.96515 17.2835 9.69998C17.2835 9.43482 17.1782 9.18051 16.9907 8.99298Z" fill="#3C4852"/>
<path d="M12.9907 0.993164C10.6173 0.993164 8.29725 1.69695 6.32386 3.01553C4.35047 4.3341 2.8124 6.20825 1.90415 8.40096C0.995899 10.5937 0.758259 13.0065 1.22128 15.3342C1.6843 17.662 2.82719 19.8002 4.50542 21.4784C6.18365 23.1567 8.32185 24.2996 10.6496 24.7626C12.9774 25.2256 15.3902 24.988 17.5829 24.0797C19.7756 23.1715 21.6498 21.6334 22.9683 19.66C24.2869 17.6866 24.9907 15.3665 24.9907 12.9932C24.9873 9.81162 23.7219 6.76137 21.4722 4.51168C19.2225 2.26199 16.1722 0.996605 12.9907 0.993164V0.993164ZM12.9907 22.9932C11.0129 22.9932 9.07949 22.4067 7.435 21.3079C5.79051 20.209 4.50879 18.6473 3.75191 16.82C2.99503 14.9927 2.797 12.9821 3.18285 11.0423C3.5687 9.10245 4.52111 7.32062 5.91964 5.9221C7.31816 4.52357 9.09999 3.57116 11.0398 3.18531C12.9796 2.79946 14.9903 2.99749 16.8175 3.75437C18.6448 4.51124 20.2066 5.79297 21.3054 7.43746C22.4042 9.08195 22.9907 11.0153 22.9907 12.9932C22.9878 15.6444 21.9333 18.1863 20.0586 20.061C18.1838 21.9357 15.642 22.9902 12.9907 22.9932Z" fill="#3C4852"/>
</g>
<defs>
<clipPath id="clip0_304_4506">
<rect width="24" height="24" fill="white" transform="translate(0.990723 0.993164)"/>
</clipPath>
</defs>
</svg>
