<svg width="25" height="25" viewBox="0 0 25 25" fill="none" xmlns="http://www.w3.org/2000/svg">
<g clip-path="url(#clip0_12_4299)">
<path d="M24.005 12.5C24.005 5.86889 18.6361 0.5 12.005 0.5C5.37389 0.5 0.00500488 5.86889 0.00500488 12.5C0.00500488 18.4911 4.39612 23.4511 10.1383 24.3578V15.9667H7.08056V12.5H10.1383V9.85111C10.1383 6.84667 11.9161 5.19333 14.6539 5.19333C15.9694 5.19333 17.3383 5.42444 17.3383 5.42444V8.37556H15.8272C14.3339 8.37556 13.8717 9.3 13.8717 10.2422V12.5H17.1961L16.6628 15.9667H13.8717V24.3578C19.6139 23.4511 24.005 18.4911 24.005 12.5Z" fill="#4267B2"/>
<path d="M16.6806 15.9667L17.2139 12.5H13.8717V10.2422C13.8717 9.30003 14.3339 8.37558 15.8272 8.37558H17.3383V5.42447C17.3383 5.42447 15.9695 5.19336 14.6539 5.19336C11.9161 5.19336 10.1383 6.84669 10.1383 9.85114V12.5H7.08057V15.9667H10.1383V24.3578C10.7428 24.4467 11.3828 24.5 12.005 24.5C12.645 24.5 13.2672 24.4467 13.8717 24.3578V15.9667H16.6806Z" fill="#FCFCFC"/>
</g>
<defs>
<clipPath id="clip0_12_4299">
<rect width="24" height="24" fill="white" transform="translate(0.00500488 0.5)"/>
</clipPath>
</defs>
</svg>
