<svg width="49" height="49" viewBox="0 0 49 49" fill="none" xmlns="http://www.w3.org/2000/svg">
<rect x="1.07031" y="0.998047" width="47" height="47" rx="3.5" fill="white" stroke="#4285F4"/>
<path d="M36.8272 22.0499H35.8203V21.998H24.5703V26.998H31.6347C30.6041 29.9087 27.8347 31.998 24.5703 31.998C20.4284 31.998 17.0703 28.6399 17.0703 24.498C17.0703 20.3562 20.4284 16.998 24.5703 16.998C26.4822 16.998 28.2216 17.7193 29.5459 18.8974L33.0816 15.3618C30.8491 13.2812 27.8628 11.998 24.5703 11.998C17.6672 11.998 12.0703 17.5949 12.0703 24.498C12.0703 31.4012 17.6672 36.998 24.5703 36.998C31.4734 36.998 37.0703 31.4012 37.0703 24.498C37.0703 23.6599 36.9841 22.8418 36.8272 22.0499Z" fill="#FBBC05"/>
<path d="M13.5117 18.6799L17.6186 21.6918C18.7298 18.9405 21.4211 16.998 24.5705 16.998C26.4823 16.998 28.2217 17.7193 29.5461 18.8974L33.0817 15.3618C30.8492 13.2812 27.863 11.998 24.5705 11.998C19.7692 11.998 15.6055 14.7087 13.5117 18.6799Z" fill="#EA4335"/>
<path d="M24.5695 36.9975C27.7983 36.9975 30.732 35.7619 32.9502 33.7525L29.0814 30.4787C27.8264 31.4294 26.2664 31.9975 24.5695 31.9975C21.3183 31.9975 18.5577 29.9244 17.5177 27.0312L13.4414 30.1719C15.5102 34.22 19.7114 36.9975 24.5695 36.9975Z" fill="#34A853"/>
<path d="M36.8272 22.0499H35.8203V21.998H24.5703V26.998H31.6347C31.1397 28.3962 30.2403 29.6018 29.0803 30.4799C29.0809 30.4793 29.0816 30.4793 29.0822 30.4787L32.9509 33.7524C32.6772 34.0012 37.0703 30.748 37.0703 24.498C37.0703 23.6599 36.9841 22.8418 36.8272 22.0499Z" fill="#4285F4"/>
</svg>
