<svg width="25" height="25" viewBox="0 0 25 25" fill="none" xmlns="http://www.w3.org/2000/svg">
<g clip-path="url(#clip0_12_4325)">
<path d="M12.005 24.5C18.6324 24.5 24.005 19.1274 24.005 12.5C24.005 5.87258 18.6324 0.5 12.005 0.5C5.37759 0.5 0.00500488 5.87258 0.00500488 12.5C0.00500488 19.1274 5.37759 24.5 12.005 24.5Z" fill="#BC2A8D"/>
<path d="M12.005 6.31322C14.0139 6.31322 14.2628 6.31323 15.0628 6.34878C15.7917 6.38434 16.2006 6.50878 16.4672 6.61545C16.8228 6.75767 17.0717 6.91767 17.3384 7.18434C17.605 7.451 17.765 7.69989 17.9072 8.05545C18.0139 8.32211 18.1384 8.71322 18.1739 9.45989C18.2095 10.2599 18.2095 10.491 18.2095 12.5177C18.2095 14.5443 18.2095 14.7754 18.1739 15.5754C18.1384 16.3043 18.0139 16.7132 17.9072 16.9799C17.765 17.3354 17.605 17.5843 17.3384 17.851C17.0717 18.1177 16.8228 18.2777 16.4672 18.4199C16.2006 18.5266 15.8095 18.651 15.0628 18.6866C14.2628 18.7221 14.0317 18.7221 12.005 18.7221C9.99613 18.7221 9.74724 18.7221 8.94724 18.6866C8.21835 18.651 7.80946 18.5266 7.5428 18.4199C7.18724 18.2777 6.93835 18.1177 6.67168 17.851C6.40502 17.5843 6.24502 17.3354 6.1028 16.9799C5.99613 16.7132 5.87168 16.3221 5.83613 15.5754C5.80057 14.7754 5.80057 14.5443 5.80057 12.5177C5.80057 10.491 5.80057 10.2599 5.83613 9.45989C5.87168 8.731 5.99613 8.32211 6.1028 8.05545C6.24502 7.69989 6.40502 7.451 6.67168 7.18434C6.93835 6.91767 7.18724 6.75767 7.5428 6.61545C7.80946 6.50878 8.20057 6.38434 8.94724 6.34878C9.74724 6.31323 9.99613 6.31322 12.005 6.31322ZM12.005 4.94434C9.96057 4.94434 9.69391 4.94434 8.89391 4.99767C8.09391 5.03322 7.5428 5.15767 7.0628 5.35322C6.56502 5.54878 6.13835 5.79767 5.72946 6.22434C5.3028 6.651 5.05391 7.05989 4.85835 7.55767C4.6628 8.03767 4.53835 8.58878 4.5028 9.38878C4.44946 10.1888 4.44946 10.4554 4.44946 12.4999C4.44946 14.5443 4.44946 14.811 4.5028 15.611C4.53835 16.411 4.6628 16.9621 4.85835 17.4421C5.05391 17.9399 5.3028 18.3666 5.72946 18.7754C6.15613 19.2021 6.56502 19.451 7.0628 19.6466C7.5428 19.8421 8.09391 19.9666 8.89391 20.0021C9.69391 20.0377 9.96057 20.0554 12.005 20.0554C14.0495 20.0554 14.3161 20.0554 15.1161 20.0021C15.9161 19.9666 16.4672 19.8421 16.9472 19.6466C17.445 19.451 17.8717 19.2021 18.2806 18.7754C18.7072 18.3488 18.9561 17.9399 19.1517 17.4421C19.3472 16.9621 19.4717 16.411 19.5072 15.611C19.5428 14.811 19.5606 14.5443 19.5606 12.4999C19.5606 10.4554 19.5606 10.1888 19.5072 9.38878C19.4717 8.58878 19.3472 8.03767 19.1517 7.55767C18.9561 7.05989 18.7072 6.63322 18.2806 6.22434C17.8539 5.79767 17.445 5.54878 16.9472 5.35322C16.4672 5.15767 15.9161 5.03322 15.1161 4.99767C14.3161 4.94434 14.0495 4.94434 12.005 4.94434Z" fill="#FCFCFC"/>
<path d="M12.005 8.62427C9.8539 8.62427 8.12946 10.3665 8.12946 12.4998C8.12946 14.6332 9.87168 16.3754 12.005 16.3754C14.1561 16.3754 15.8806 14.6332 15.8806 12.4998C15.8806 10.3665 14.1561 8.62427 12.005 8.62427ZM12.005 15.0243C10.6183 15.0243 9.48057 13.9043 9.48057 12.4998C9.48057 11.0954 10.6006 9.97538 12.005 9.97538C13.4095 9.97538 14.5295 11.0954 14.5295 12.4998C14.5295 13.9043 13.3917 15.0243 12.005 15.0243Z" fill="#FCFCFC"/>
<path d="M16.0406 9.37095C16.5413 9.37095 16.9472 8.96502 16.9472 8.46428C16.9472 7.96355 16.5413 7.55762 16.0406 7.55762C15.5398 7.55762 15.1339 7.96355 15.1339 8.46428C15.1339 8.96502 15.5398 9.37095 16.0406 9.37095Z" fill="#FCFCFC"/>
</g>
<defs>
<clipPath id="clip0_12_4325">
<rect width="24" height="24" fill="white" transform="translate(0.00500488 0.5)"/>
</clipPath>
</defs>
</svg>
