<svg width="30" height="30" viewBox="0 0 30 30" fill="none" xmlns="http://www.w3.org/2000/svg">
<path d="M23.3436 29.9842L6.6857 30C3.02097 30.0033 0.0200533 27.0082 0.0158888 23.3435L6.38119e-05 6.68564C-0.00326776 3.02091 2.99182 0.0199923 6.65655 0.0158278L23.3144 2.77671e-06C26.9792 -0.0033288 29.9801 2.99176 29.9842 6.65649L30.0001 23.3144C30.0042 26.9799 27.0083 29.9808 23.3436 29.9842Z" fill="url(#paint0_radial_75_26)"/>
<path d="M23.3436 29.9842L6.6857 30C3.02097 30.0033 0.0200533 27.0082 0.0158888 23.3435L6.38119e-05 6.68564C-0.00326776 3.02091 2.99182 0.0199923 6.65655 0.0158278L23.3144 2.77671e-06C26.9792 -0.0033288 29.9801 2.99176 29.9842 6.65649L30.0001 23.3144C30.0042 26.9799 27.0083 29.9808 23.3436 29.9842Z" fill="url(#paint1_radial_75_26)"/>
<path d="M15.0005 20.8304C11.7863 20.8304 9.17023 18.2151 9.17023 15.0002C9.17023 11.7852 11.7863 9.16992 15.0005 9.16992C18.2146 9.16992 20.8307 11.7852 20.8307 15.0002C20.8307 18.2151 18.2146 20.8304 15.0005 20.8304ZM15.0005 10.8357C12.7042 10.8357 10.836 12.7039 10.836 15.0002C10.836 17.2965 12.7042 19.1646 15.0005 19.1646C17.2968 19.1646 19.165 17.2965 19.165 15.0002C19.165 12.7039 17.2968 10.8357 15.0005 10.8357Z" fill="white"/>
<path d="M21.2472 10.0031C21.9372 10.0031 22.4965 9.44373 22.4965 8.75373C22.4965 8.06374 21.9372 7.50439 21.2472 7.50439C20.5572 7.50439 19.9978 8.06374 19.9978 8.75373C19.9978 9.44373 20.5572 10.0031 21.2472 10.0031Z" fill="white"/>
<path d="M19.9978 25.8276H10.0031C6.78897 25.8276 4.17285 23.2123 4.17285 19.9973V10.0026C4.17285 6.78765 6.78897 4.17236 10.0031 4.17236H19.9978C23.212 4.17236 25.8281 6.78765 25.8281 10.0026V19.9973C25.8281 23.2123 23.212 25.8276 19.9978 25.8276ZM10.0031 5.83815C7.70682 5.83815 5.83864 7.70633 5.83864 10.0026V19.9973C5.83864 22.2936 7.70682 24.1618 10.0031 24.1618H19.9978C22.2941 24.1618 24.1623 22.2936 24.1623 19.9973V10.0026C24.1623 7.70633 22.2941 5.83815 19.9978 5.83815H10.0031Z" fill="white"/>
<defs>
<radialGradient id="paint0_radial_75_26" cx="0" cy="0" r="1" gradientUnits="userSpaceOnUse" gradientTransform="translate(11.1525 30.0217) scale(37.3961)">
<stop stop-color="#FFDD55"/>
<stop offset="0.328" stop-color="#FF543F"/>
<stop offset="0.348" stop-color="#FC5245"/>
<stop offset="0.504" stop-color="#E64771"/>
<stop offset="0.643" stop-color="#D53E91"/>
<stop offset="0.761" stop-color="#CC39A4"/>
<stop offset="0.841" stop-color="#C837AB"/>
</radialGradient>
<radialGradient id="paint1_radial_75_26" cx="0" cy="0" r="1" gradientUnits="userSpaceOnUse" gradientTransform="translate(4.82752 -0.374548) scale(24.8311 16.5449)">
<stop stop-color="#4168C9"/>
<stop offset="0.999" stop-color="#4168C9" stop-opacity="0"/>
</radialGradient>
</defs>
</svg>
