<svg width="30" height="31" viewBox="0 0 30 31" fill="none" xmlns="http://www.w3.org/2000/svg">
<g clip-path="url(#clip0_43_562)">
<path d="M6.10352e-05 22.4047V8.02111C6.10352e-05 3.70604 3.49321 0.212891 7.80828 0.212891H22.0891C26.4042 0.212891 29.8973 3.70604 29.8973 8.02111V22.3019C29.8973 26.617 26.4042 30.1102 22.0891 30.1102H7.80828C3.49321 30.2129 6.10352e-05 26.7197 6.10352e-05 22.4047Z" fill="url(#paint0_linear_43_562)"/>
<path d="M8.73295 12.4387H11.6097V21.788H8.73295V12.4387ZM10.1713 7.81543C11.096 7.81543 11.8151 8.53461 11.8151 9.45927C11.8151 10.3839 11.096 11.1031 10.1713 11.1031C9.24664 11.2058 8.52747 10.3839 8.52747 9.45927C8.52747 8.53461 9.24664 7.81543 10.1713 7.81543Z" fill="white"/>
<path d="M13.459 12.4391H16.2329V13.672C16.6439 12.9528 17.5685 12.1309 19.0069 12.1309C21.9864 12.1309 22.5 14.0829 22.5 16.5487V21.6857H19.6233V17.1651C19.6233 16.035 19.6233 14.6994 18.0822 14.6994C16.5411 14.6994 16.3357 15.8295 16.3357 17.0624V21.7884H13.459V12.4391Z" fill="white"/>
</g>
<defs>
<linearGradient id="paint0_linear_43_562" x1="27.7354" y1="2.52156" x2="2.30862" y2="27.9483" gradientUnits="userSpaceOnUse">
<stop stop-color="#007AB5"/>
<stop offset="1" stop-color="#0046E5"/>
</linearGradient>
<clipPath id="clip0_43_562">
<rect width="30" height="30" fill="white" transform="translate(6.10352e-05 0.212891)"/>
</clipPath>
</defs>
</svg>
