<svg width="25" height="25" viewBox="0 0 25 25" fill="none" xmlns="http://www.w3.org/2000/svg">
<g clip-path="url(#clip0_12_4305)">
<path d="M12.9871 24.5C19.6145 24.5 24.9871 19.1274 24.9871 12.5C24.9871 5.87258 19.6145 0.5 12.9871 0.5C6.35964 0.5 0.987061 5.87258 0.987061 12.5C0.987061 19.1274 6.35964 24.5 12.9871 24.5Z" fill="#0E76A8"/>
<path d="M13.9115 10.8644C14.1071 10.6511 14.2671 10.4199 14.4804 10.2244C15.1026 9.63773 15.8315 9.3355 16.7026 9.35328C17.1826 9.35328 17.6448 9.38884 18.0893 9.53106C19.1382 9.83328 19.7426 10.5444 20.0271 11.5755C20.2404 12.3399 20.276 13.1222 20.2937 13.9044C20.2937 15.5577 20.2937 17.2111 20.2937 18.8822C20.2937 19.0422 20.2582 19.0777 20.0982 19.0777C19.2448 19.0777 18.3915 19.0777 17.5382 19.0777C17.396 19.0777 17.3604 19.0244 17.3604 18.8822C17.3604 17.2999 17.3604 15.7355 17.3604 14.1533C17.3604 13.7622 17.3426 13.3711 17.2182 12.9799C17.0226 12.2688 16.5071 11.9133 15.7604 11.9488C14.7471 12.0022 14.2137 12.4999 14.0893 13.5311C14.0537 13.7799 14.036 14.0288 14.036 14.2777C14.036 15.8066 14.036 17.3533 14.036 18.8822C14.036 19.0422 14.0004 19.0777 13.8404 19.0777C12.9871 19.0777 12.116 19.0777 11.2626 19.0777C11.1204 19.0777 11.0848 19.0422 11.0848 18.8999C11.0848 15.8599 11.0848 12.8199 11.0848 9.77995C11.0848 9.63773 11.1382 9.60217 11.2804 9.60217C12.0982 9.60217 12.9159 9.60217 13.7337 9.60217C13.8759 9.60217 13.9293 9.6555 13.9115 9.79772C13.9115 10.1355 13.9115 10.4911 13.9115 10.8644Z" fill="#FCFCFC"/>
<path d="M9.23595 14.3311C9.23595 15.8423 9.23595 17.3356 9.23595 18.8467C9.23595 19.0067 9.20039 19.06 9.02261 19.06C8.16928 19.0423 7.31595 19.06 6.46261 19.06C6.32039 19.06 6.28484 19.0245 6.28484 18.8823C6.28484 15.8423 6.28484 12.8023 6.28484 9.76225C6.28484 9.63781 6.32039 9.58447 6.44484 9.58447C7.31595 9.58447 8.16928 9.58447 9.04039 9.58447C9.20039 9.58447 9.23595 9.65558 9.23595 9.79781C9.23595 11.3089 9.23595 12.82 9.23595 14.3311Z" fill="#FCFCFC"/>
<path d="M9.46706 6.56218C9.46706 7.5044 8.70262 8.26885 7.76039 8.26885C6.83595 8.26885 6.05373 7.5044 6.05373 6.57996C6.05373 5.63774 6.81817 4.87329 7.76039 4.87329C8.70262 4.87329 9.46706 5.63774 9.46706 6.56218Z" fill="#FCFCFC"/>
</g>
<defs>
<clipPath id="clip0_12_4305">
<rect width="24" height="24" fill="white" transform="translate(0.987061 0.5)"/>
</clipPath>
</defs>
</svg>
