<svg width="80" height="62" viewBox="0 0 80 62" fill="none" xmlns="http://www.w3.org/2000/svg">
<g clip-path="url(#clip0_43_424)">
<path d="M77.3576 56.2799H3.73576V8.17055C3.73576 3.97921 7.10706 0.60791 11.2984 0.60791H69.7039C73.8952 0.60791 77.2665 3.97921 77.2665 8.17055V56.2799H77.3576Z" fill="#AFEAD6"/>
<path d="M0 55.2778H80V56.9179C80 59.2869 78.0866 61.2004 75.7175 61.2004H4.28246C1.91344 61.2004 0 59.2869 0 56.9179V55.2778Z" fill="#08BD80"/>
<path d="M11.8451 23.2957C20.7745 15.6419 41.6401 2.88568 66.2415 23.7513C68.8838 25.9381 69.0661 30.0383 66.5148 32.4073C58.2232 40.4255 37.7221 54.3663 11.8451 32.2251C9.11162 29.8561 9.11162 25.6647 11.8451 23.2957Z" fill="white"/>
<path d="M43.7358 31.0405C48.7176 31.0405 52.7563 27.0019 52.7563 22.02C52.7563 17.0381 48.7176 12.9995 43.7358 12.9995C38.7539 12.9995 34.7153 17.0381 34.7153 22.02C34.7153 27.0019 38.7539 31.0405 43.7358 31.0405Z" fill="#08BD80"/>
<path d="M43.7358 30.494C45.0945 30.494 46.1959 29.3926 46.1959 28.0339C46.1959 26.6752 45.0945 25.5737 43.7358 25.5737C42.3771 25.5737 41.2756 26.6752 41.2756 28.0339C41.2756 29.3926 42.3771 30.494 43.7358 30.494Z" fill="#AFEAD6"/>
<path d="M11.1162 7.53255C12.2233 7.53255 13.1207 6.63508 13.1207 5.52799C13.1207 4.42091 12.2233 3.52344 11.1162 3.52344C10.0091 3.52344 9.11162 4.42091 9.11162 5.52799C9.11162 6.63508 10.0091 7.53255 11.1162 7.53255Z" fill="white"/>
<path d="M16.6743 7.53255C17.7813 7.53255 18.6788 6.63508 18.6788 5.52799C18.6788 4.42091 17.7813 3.52344 16.6743 3.52344C15.5672 3.52344 14.6697 4.42091 14.6697 5.52799C14.6697 6.63508 15.5672 7.53255 16.6743 7.53255Z" fill="white"/>
<path d="M22.1412 7.53255C23.2483 7.53255 24.1458 6.63508 24.1458 5.52799C24.1458 4.42091 23.2483 3.52344 22.1412 3.52344C21.0341 3.52344 20.1367 4.42091 20.1367 5.52799C20.1367 6.63508 21.0341 7.53255 22.1412 7.53255Z" fill="white"/>
</g>
<defs>
<clipPath id="clip0_43_424">
<rect width="80" height="60.5923" fill="white" transform="translate(0 0.60791)"/>
</clipPath>
</defs>
</svg>
