<svg width="21" height="21" viewBox="0 0 21 21" fill="none" xmlns="http://www.w3.org/2000/svg">
<g clip-path="url(#clip0_304_6359)">
<path d="M20.1091 8.23746C19.3568 7.00557 18.4079 5.90518 17.2999 4.97997L19.6333 2.64663C19.7851 2.48947 19.8691 2.27896 19.8672 2.06047C19.8653 1.84197 19.7776 1.63296 19.6231 1.47845C19.4686 1.32395 19.2596 1.23631 19.0411 1.23441C18.8226 1.23251 18.6121 1.3165 18.4549 1.4683L15.9174 4.00913C14.3444 3.07482 12.5461 2.58785 10.7166 2.6008C5.55743 2.6008 2.61743 6.13246 1.3241 8.23746C0.924535 8.88372 0.712891 9.6285 0.712891 10.3883C0.712891 11.1481 0.924535 11.8929 1.3241 12.5391C2.07639 13.771 3.02534 14.8714 4.13326 15.7966L1.79993 18.13C1.72034 18.2068 1.65685 18.2988 1.61318 18.4005C1.5695 18.5021 1.54651 18.6115 1.54555 18.7221C1.54459 18.8328 1.56568 18.9425 1.60758 19.0449C1.64948 19.1473 1.71136 19.2404 1.7896 19.3186C1.86784 19.3969 1.96089 19.4587 2.0633 19.5006C2.16571 19.5425 2.27545 19.5636 2.3861 19.5627C2.49675 19.5617 2.6061 19.5387 2.70777 19.495C2.80944 19.4514 2.90139 19.3879 2.97826 19.3083L5.52159 16.765C7.09265 17.6991 8.88882 18.1869 10.7166 18.1758C15.8758 18.1758 18.8158 14.6441 20.1091 12.5391C20.5087 11.8929 20.7203 11.1481 20.7203 10.3883C20.7203 9.6285 20.5087 8.88372 20.1091 8.23746ZM2.7441 11.6666C2.50671 11.2825 2.38097 10.8399 2.38097 10.3883C2.38097 9.93673 2.50671 9.49409 2.7441 9.10996C3.85576 7.30496 6.36826 4.26747 10.7166 4.26747C12.1002 4.25972 13.4643 4.59316 14.6883 5.2383L13.0108 6.9158C12.2107 6.38463 11.2515 6.14663 10.296 6.24217C9.34039 6.33771 8.44732 6.76091 7.76826 7.43997C7.08921 8.11902 6.66601 9.0121 6.57047 9.96766C6.47493 10.9232 6.71293 11.8824 7.24409 12.6825L5.31909 14.6075C4.29835 13.7822 3.42729 12.7874 2.7441 11.6666ZM13.2166 10.3883C13.2166 11.0513 12.9532 11.6872 12.4844 12.1561C12.0155 12.6249 11.3796 12.8883 10.7166 12.8883C10.3454 12.8869 9.97926 12.8014 9.64576 12.6383L12.9666 9.31746C13.1297 9.65096 13.2152 10.0171 13.2166 10.3883ZM8.21659 10.3883C8.21659 9.72526 8.47999 9.08937 8.94883 8.62053C9.41767 8.15169 10.0536 7.8883 10.7166 7.8883C11.0878 7.88974 11.4539 7.9752 11.7874 8.1383L8.4666 11.4591C8.3035 11.1256 8.21803 10.7595 8.21659 10.3883ZM18.6891 11.6666C17.5774 13.4716 15.0649 16.5091 10.7166 16.5091C9.33303 16.5169 7.9689 16.1834 6.74493 15.5383L8.42243 13.8608C9.22248 14.392 10.1817 14.63 11.1372 14.5344C12.0928 14.4389 12.9859 14.0157 13.6649 13.3366C14.344 12.6576 14.7672 11.7645 14.8627 10.8089C14.9583 9.85337 14.7203 8.89419 14.1891 8.09413L16.1141 6.16913C17.1348 6.99437 18.0059 7.98917 18.6891 9.10996C18.9265 9.49409 19.0522 9.93673 19.0522 10.3883C19.0522 10.8399 18.9265 11.2825 18.6891 11.6666Z" fill="#7A8B94"/>
</g>
<defs>
<clipPath id="clip0_304_6359">
<rect width="20" height="20" fill="white" transform="translate(0.716797 0.388672)"/>
</clipPath>
</defs>
</svg>
