<svg width="30" height="31" viewBox="0 0 30 31" fill="none" xmlns="http://www.w3.org/2000/svg">
<g clip-path="url(#clip0_43_566)">
<path d="M6.10352e-05 22.4047V8.02111C6.10352e-05 3.70604 3.49321 0.212891 7.80828 0.212891H22.0891C26.4042 0.212891 29.8973 3.70604 29.8973 8.02111V22.3019C29.8973 26.617 26.4042 30.1102 22.0891 30.1102H7.80828C3.49321 30.2129 6.10352e-05 26.7197 6.10352e-05 22.4047Z" fill="url(#paint0_linear_43_566)"/>
<path fill-rule="evenodd" clip-rule="evenodd" d="M13.8699 18.5006C13.8699 18.6033 13.8699 18.6033 13.8699 18.6033C13.1508 21.2746 13.1508 21.7883 12.4316 23.0211C12.1234 23.6376 11.7124 24.1513 11.3014 24.665C11.3014 24.7677 11.1987 24.7677 11.096 24.7677C10.9932 24.7677 10.9932 24.665 10.9932 24.5622C10.8905 23.7403 10.7877 22.9184 10.8905 22.1992C10.8905 21.1718 11.096 20.7609 12.4316 15.1102C12.4316 15.0074 12.4316 14.9047 12.4316 14.9047C12.1234 14.0828 12.0206 13.1581 12.3288 12.2335C12.9453 10.2814 15.1028 10.1787 15.5138 11.7198C15.7193 12.7472 15.1028 13.98 14.6919 15.9321C14.2809 17.4732 16.1302 18.6033 17.774 17.4732C19.2124 16.4458 19.8288 13.8773 19.7261 12.028C19.5206 8.43209 15.6165 7.61017 13.048 8.84305C10.1713 10.1787 9.55487 13.7746 10.7877 15.3156C10.9932 15.5211 11.096 15.6239 10.9932 15.8293C10.8905 16.1376 10.7877 16.4458 10.7877 16.8567C10.685 17.0622 10.4795 17.165 10.274 17.0622C9.65761 16.9595 9.24665 16.6513 8.93843 16.2403C7.80829 14.9047 7.50007 12.1307 8.93843 9.87044C10.5823 7.40469 13.5617 6.37729 16.3357 6.68551C19.6234 7.09647 21.6782 9.25401 22.0891 11.8225C22.2946 12.9526 22.0891 15.8293 20.548 17.8841C18.6987 20.2472 15.6165 20.3499 14.2809 18.9115C14.0754 18.8088 13.9727 18.6033 13.8699 18.5006Z" fill="white"/>
</g>
<defs>
<linearGradient id="paint0_linear_43_566" x1="27.7354" y1="2.52145" x2="2.30862" y2="27.9482" gradientUnits="userSpaceOnUse">
<stop stop-color="#FC4D3F"/>
<stop offset="1" stop-color="#CD083F"/>
</linearGradient>
<clipPath id="clip0_43_566">
<rect width="30" height="30" fill="white" transform="translate(6.10352e-05 0.212891)"/>
</clipPath>
</defs>
</svg>
