<svg width="25" height="25" viewBox="0 0 25 25" fill="none" xmlns="http://www.w3.org/2000/svg">
<g clip-path="url(#clip0_12_4315)">
<path d="M12.0407 0.5C5.39178 0.5 0.0228882 5.86095 0.0228882 12.5C0.0228882 17.5769 3.18733 21.926 7.64956 23.6657C7.54289 22.7249 7.454 21.2515 7.68511 20.2219C7.89844 19.2811 9.08955 14.2574 9.08955 14.2574C9.08955 14.2574 8.734 13.5296 8.734 12.4822C8.734 10.8136 9.694 9.57101 10.9029 9.57101C11.934 9.57101 12.4318 10.3343 12.4318 11.2574C12.4318 12.287 11.774 13.8314 11.4362 15.2515C11.1518 16.4408 12.0407 17.4172 13.214 17.4172C15.3473 17.4172 16.9829 15.1627 16.9829 11.932C17.0007 9.07397 14.9207 7.06805 11.9696 7.06805C8.55622 7.06805 6.54733 9.62426 6.54733 12.2692C6.54733 13.2988 6.93844 14.3994 7.43622 15.003C7.54289 15.1272 7.54289 15.2337 7.50733 15.3402C7.41844 15.713 7.20511 16.5296 7.16956 16.7071C7.11622 16.9201 6.99178 16.9734 6.76067 16.8669C5.26733 16.1568 4.32511 13.9911 4.32511 12.216C4.32511 8.43491 7.08067 4.95562 12.254 4.95562C16.414 4.95562 19.6496 7.92012 19.6496 11.8787C19.6496 16.0148 17.0362 19.3343 13.4273 19.3343C12.2184 19.3343 11.0629 18.6953 10.6718 17.9497C10.6718 17.9497 10.0673 20.2396 9.92511 20.8077C9.65844 21.855 8.92955 23.1509 8.43178 23.9497C9.55178 24.287 10.7429 24.4823 11.9873 24.4823C18.6184 24.4823 24.0051 19.1213 24.0051 12.4822C24.0407 5.86095 18.6718 0.5 12.0407 0.5Z" fill="#E60023"/>
</g>
<defs>
<clipPath id="clip0_12_4315">
<rect width="24" height="24" fill="white" transform="translate(0.0228882 0.5)"/>
</clipPath>
</defs>
</svg>
