<svg width="38" height="38" viewBox="0 0 38 38" fill="none" xmlns="http://www.w3.org/2000/svg">
<circle cx="19" cy="19" r="19" fill="#3C4852"/>
<g clip-path="url(#clip0_713_2547)">
<path d="M20.2593 19L25.8641 13.3958C26.212 13.0479 26.212 12.4838 25.8641 12.1359C25.5161 11.788 24.9521 11.788 24.6042 12.1359L19 17.7407L13.3958 12.1359C13.0479 11.788 12.4838 11.788 12.1359 12.1359C11.788 12.4838 11.788 13.0479 12.1359 13.3958L17.7407 19L12.1359 24.6042C11.788 24.9521 11.788 25.5162 12.1359 25.8641C12.4838 26.2119 13.0479 26.212 13.3958 25.8641L19 20.2593L24.6042 25.8641C24.9521 26.212 25.5161 26.212 25.864 25.8641C26.2119 25.5161 26.2119 24.9521 25.864 24.6042L20.2593 19Z" fill="white"/>
</g>
<defs>
<clipPath id="clip0_713_2547">
<rect width="14.25" height="14.25" fill="white" transform="translate(11.875 11.875)"/>
</clipPath>
</defs>
</svg>
