<svg width="25" height="25" viewBox="0 0 25 25" fill="none" xmlns="http://www.w3.org/2000/svg">
<g clip-path="url(#clip0_12_4288)">
<path d="M12.0229 24.5C18.6503 24.5 24.0229 19.1274 24.0229 12.5C24.0229 5.87258 18.6503 0.5 12.0229 0.5C5.39547 0.5 0.0228882 5.87258 0.0228882 12.5C0.0228882 19.1274 5.39547 24.5 12.0229 24.5Z" fill="#229ED9"/>
<path d="M8.14734 13.3712L9.56956 17.3179C9.56956 17.3179 9.74734 17.6912 9.94289 17.6912C10.1384 17.6912 12.9651 14.7401 12.9651 14.7401L16.1118 8.64233L8.20067 12.3579L8.14734 13.3712Z" fill="#C8DAEA"/>
<path d="M10.0318 14.3845L9.7651 17.2823C9.7651 17.2823 9.65844 18.1712 10.5473 17.2823C11.4362 16.3934 12.2895 15.7001 12.2895 15.7001L10.0318 14.3845Z" fill="#A9C6D8"/>
<path d="M8.16511 13.5133L5.23178 12.5533C5.23178 12.5533 4.87622 12.4111 5.00066 12.0911C5.01844 12.02 5.07178 11.9666 5.214 11.8778C5.87178 11.4333 17.2318 7.34442 17.2318 7.34442C17.2318 7.34442 17.5518 7.23776 17.7473 7.30887C17.8362 7.34442 17.8896 7.37998 17.9429 7.5222C17.9607 7.57553 17.9784 7.6822 17.9607 7.78887C17.9607 7.85998 17.9429 7.93109 17.9429 8.03776C17.8718 9.15776 15.8096 17.4955 15.8096 17.4955C15.8096 17.4955 15.6851 17.9755 15.2407 17.9933C15.0807 17.9933 14.8851 17.9578 14.654 17.7622C13.7829 17.0155 10.7784 14.9889 10.1029 14.5444C10.0673 14.5266 10.0496 14.4911 10.0496 14.4555C10.0318 14.4022 10.0851 14.3489 10.0851 14.3489C10.0851 14.3489 15.3296 9.69109 15.4718 9.19331C15.4896 9.15776 15.4362 9.13998 15.3829 9.15776C15.0273 9.2822 9.00067 13.1044 8.32511 13.5133C8.28955 13.5311 8.16511 13.5133 8.16511 13.5133Z" fill="#FCFCFC"/>
</g>
<defs>
<clipPath id="clip0_12_4288">
<rect width="24" height="24" fill="white" transform="translate(0.0228882 0.5)"/>
</clipPath>
</defs>
</svg>
