<svg width="30" height="31" viewBox="0 0 30 31" fill="none" xmlns="http://www.w3.org/2000/svg">
<g clip-path="url(#clip0_43_572)">
<path d="M22.2821 30.167H7.71799C3.46569 30.167 6.10352e-05 26.7226 6.10352e-05 22.4491V7.88492C6.10352e-05 3.61136 3.44443 0.166992 7.71799 0.166992H22.2821C26.5344 0.166992 30.0001 3.61136 30.0001 7.88492V22.4491C30.0001 26.7014 26.5344 30.167 22.2821 30.167Z" fill="url(#paint0_linear_43_572)"/>
<path d="M11.0348 16.0496L12.7357 20.7697C12.7357 20.7697 12.9483 21.2162 13.1822 21.2162C13.4161 21.2162 16.7967 17.6867 16.7967 17.6867L20.5599 10.394L11.0773 14.8377L11.0348 16.0496Z" fill="#C8DAEA"/>
<path d="M13.2885 17.2612L12.9696 20.7269C12.9696 20.7269 12.842 21.7899 13.9051 20.7269C14.9682 19.6638 15.9887 18.8346 15.9887 18.8346L13.2885 17.2612Z" fill="#A9C6D8"/>
<path d="M11.056 16.2195L7.5479 15.0714C7.5479 15.0714 7.12267 14.9013 7.2715 14.5186C7.29276 14.4336 7.35654 14.3698 7.52664 14.2635C8.31331 13.7319 21.8994 8.84178 21.8994 8.84178C21.8994 8.84178 22.2821 8.71421 22.516 8.79925C22.6223 8.84178 22.6861 8.8843 22.7499 9.05439C22.7711 9.11818 22.7924 9.24575 22.7711 9.37332C22.7711 9.45836 22.7499 9.54341 22.7499 9.67098C22.6648 11.0105 20.1985 20.9821 20.1985 20.9821C20.1985 20.9821 20.0497 21.5562 19.5181 21.5774C19.3268 21.5774 19.0929 21.5349 18.8165 21.301C17.7747 20.408 14.1815 17.9842 13.3736 17.4527C13.331 17.4314 13.3098 17.3889 13.3098 17.3464C13.2885 17.2826 13.3523 17.2188 13.3523 17.2188C13.3523 17.2188 19.6244 11.6483 19.7945 11.053C19.8158 11.0105 19.752 10.9892 19.6882 11.0105C19.263 11.1593 12.0553 15.7305 11.2474 16.2195C11.1836 16.2408 11.056 16.2195 11.056 16.2195Z" fill="white"/>
</g>
<defs>
<linearGradient id="paint0_linear_43_572" x1="14.9976" y1="30.162" x2="14.9976" y2="0.166992" gradientUnits="userSpaceOnUse">
<stop stop-color="#1D93D2"/>
<stop offset="1" stop-color="#38B0E3"/>
</linearGradient>
<clipPath id="clip0_43_572">
<rect width="30" height="30" fill="white" transform="translate(6.10352e-05 0.166992)"/>
</clipPath>
</defs>
</svg>
