<svg width="25" height="25" viewBox="0 0 25 25" fill="none" xmlns="http://www.w3.org/2000/svg">
<g clip-path="url(#clip0_12_4341)">
<path d="M12.0229 24.5C18.6503 24.5 24.0229 19.1274 24.0229 12.5C24.0229 5.87258 18.6503 0.5 12.0229 0.5C5.39547 0.5 0.0228882 5.87258 0.0228882 12.5C0.0228882 19.1274 5.39547 24.5 12.0229 24.5Z" fill="#00ACEE"/>
<path d="M9.60511 19.4154C15.4718 19.4154 18.6718 14.5621 18.6718 10.3488C18.6718 10.2065 18.6718 10.0821 18.654 9.93988C19.2762 9.49543 19.8095 8.92655 20.2362 8.28655C19.6673 8.53543 19.0451 8.71321 18.4051 8.78432C19.0629 8.39321 19.5607 7.77099 19.8095 7.02432C19.1873 7.39766 18.5118 7.64655 17.7829 7.80655C17.1962 7.18432 16.3784 6.79321 15.454 6.79321C13.694 6.79321 12.2718 8.21543 12.2718 9.97543C12.2718 10.2243 12.3073 10.4732 12.3607 10.7043C9.71177 10.5799 7.36511 9.29988 5.80066 7.37988C5.53399 7.8421 5.37399 8.39321 5.37399 8.97988C5.37399 10.0821 5.94288 11.0599 6.79622 11.6288C6.28066 11.611 5.78288 11.4688 5.35622 11.2377C5.35622 11.2554 5.35622 11.2554 5.35622 11.2732C5.35622 12.8199 6.45844 14.0999 7.91622 14.4021C7.64955 14.4732 7.36511 14.5088 7.08066 14.5088C6.86733 14.5088 6.67177 14.491 6.47622 14.4554C6.88511 15.7177 8.05844 16.6421 9.44511 16.6599C8.36066 17.5132 6.97399 18.0288 5.48066 18.0288C5.23177 18.0288 4.96511 18.011 4.71622 17.9932C6.12066 18.8821 7.79177 19.4154 9.60511 19.4154Z" fill="#FCFCFC"/>
</g>
<defs>
<clipPath id="clip0_12_4341">
<rect width="24" height="24" fill="white" transform="translate(0.0228882 0.5)"/>
</clipPath>
</defs>
</svg>
