<svg width="30" height="31" viewBox="0 0 30 31" fill="none" xmlns="http://www.w3.org/2000/svg">
<g clip-path="url(#clip0_43_559)">
<path d="M6.10352e-05 22.4047V8.02111C6.10352e-05 3.70604 3.49321 0.212891 7.80828 0.212891H22.0891C26.4042 0.212891 29.8973 3.70604 29.8973 8.02111V22.3019C29.8973 26.617 26.4042 30.1102 22.0891 30.1102H7.80828C3.49321 30.2129 6.10352e-05 26.7197 6.10352e-05 22.4047Z" fill="url(#paint0_linear_43_559)"/>
<path d="M23.322 10.076C22.8083 10.2814 22.1919 10.4869 21.6782 10.5897C21.9864 10.5897 22.2946 10.076 22.5001 9.87048C22.7055 9.56227 22.911 9.25405 23.0138 8.84309V8.74035H22.911C22.2946 9.04857 21.6782 9.35679 20.959 9.45953C20.8562 9.45953 20.8562 9.45953 20.8562 9.45953C20.7535 9.35679 20.7535 9.35679 20.6508 9.25405C20.3425 9.04857 20.0343 8.84309 19.7261 8.63761C19.2124 8.53487 18.8014 8.43213 18.2877 8.43213C17.774 8.43213 17.3631 8.63761 16.9521 8.84309C16.5412 9.04857 16.1302 9.35679 15.822 9.76775C15.5138 10.1787 15.3083 10.5897 15.2055 11.1034C15.1028 11.6171 15.1028 12.028 15.2055 12.5417C15.2055 12.6445 15.2055 12.6445 15.1028 12.6445C12.3288 12.2335 10.0686 11.2061 8.21925 9.15131C8.11651 9.04857 8.11651 9.04857 8.01377 9.15131C7.19185 10.3842 7.60281 12.2335 8.63021 13.1582C8.73295 13.2609 8.93843 13.3636 9.04117 13.5691C8.93843 13.5691 8.32199 13.4664 7.70555 13.1582C7.60281 13.1582 7.60281 13.1582 7.60281 13.2609C7.60281 13.3636 7.60281 13.4664 7.60281 13.6719C7.70555 14.9047 8.63021 16.0349 9.76034 16.4458C9.86308 16.5486 10.0686 16.5486 10.1713 16.5486C9.96582 16.6513 9.6576 16.6513 8.93843 16.6513C8.83569 16.6513 8.83569 16.6513 8.83569 16.754C9.34939 18.2951 10.5823 18.7061 11.5069 19.0143C11.6097 19.0143 11.7124 19.0143 11.9179 19.0143C11.6097 19.4253 10.5823 19.8362 10.0686 19.939C9.14391 20.2472 8.21925 20.3499 7.29459 20.2472C7.19185 20.2472 7.08911 20.2472 7.08911 20.2472V20.3499C7.29459 20.4527 7.50007 20.5554 7.70555 20.6582C8.32199 20.9664 8.93843 21.2746 9.55486 21.3773C12.9453 22.302 16.6439 21.5828 19.2124 19.1171C21.1645 17.165 21.8836 14.4938 21.8836 11.7198C21.8836 11.6171 21.9864 11.5143 22.0891 11.5143C22.6028 11.1034 23.0138 10.6924 23.4247 10.1787C23.4247 10.2814 23.4247 10.1787 23.322 10.076C23.4247 10.076 23.4247 10.076 23.322 10.076C23.4247 10.076 23.4247 10.076 23.322 10.076Z" fill="white"/>
</g>
<defs>
<linearGradient id="paint0_linear_43_559" x1="27.7353" y1="2.52145" x2="2.30862" y2="27.9482" gradientUnits="userSpaceOnUse">
<stop stop-color="#33CCFF"/>
<stop offset="1" stop-color="#337FFF"/>
</linearGradient>
<clipPath id="clip0_43_559">
<rect width="30" height="30" fill="white" transform="translate(6.10352e-05 0.212891)"/>
</clipPath>
</defs>
</svg>
