<svg width="15" height="14" viewBox="0 0 15 14" fill="none" xmlns="http://www.w3.org/2000/svg">
<g clip-path="url(#clip0_6_2)">
<path d="M7.05565 7C7.74885 7 8.42648 6.79473 9.00286 6.41014C9.57923 6.02556 10.0285 5.47893 10.2937 4.83939C10.559 4.19985 10.6284 3.49612 10.4932 2.81718C10.3579 2.13825 10.0241 1.51461 9.53397 1.02513C9.04381 0.535644 8.4193 0.202301 7.73942 0.0672531C7.05954 -0.0677952 6.35483 0.0015165 5.7144 0.266423C5.07397 0.53133 4.52658 0.979933 4.14146 1.55551C3.75634 2.13108 3.55078 2.80777 3.55078 3.5C3.55171 4.42797 3.92127 5.31767 4.57836 5.97385C5.23545 6.63003 6.12639 6.99907 7.05565 7ZM7.05565 1.16667C7.51779 1.16667 7.96954 1.30352 8.35379 1.55991C8.73804 1.8163 9.03752 2.18071 9.21437 2.60707C9.39122 3.03343 9.4375 3.50259 9.34734 3.95521C9.25718 4.40783 9.03464 4.82359 8.70787 5.14992C8.38109 5.47624 7.96475 5.69847 7.5115 5.7885C7.05825 5.87853 6.58844 5.83232 6.16148 5.65572C5.73453 5.47912 5.3696 5.18005 5.11286 4.79633C4.85611 4.41262 4.71907 3.96149 4.71907 3.5C4.71907 2.88116 4.96525 2.28767 5.40344 1.85009C5.84163 1.4125 6.43595 1.16667 7.05565 1.16667Z" fill="#3C4852"/>
<path d="M7.05613 8.16699C5.66228 8.16854 4.32597 8.72216 3.34037 9.70639C2.35476 10.6906 1.80037 12.0251 1.79883 13.417C1.79883 13.5717 1.86037 13.7201 1.96992 13.8295C2.07947 13.9389 2.22805 14.0003 2.38297 14.0003C2.5379 14.0003 2.68648 13.9389 2.79603 13.8295C2.90557 13.7201 2.96712 13.5717 2.96712 13.417C2.96712 12.334 3.39792 11.2954 4.16476 10.5296C4.9316 9.76387 5.97166 9.33366 7.05613 9.33366C8.14061 9.33366 9.18067 9.76387 9.94751 10.5296C10.7143 11.2954 11.1452 12.334 11.1452 13.417C11.1452 13.5717 11.2067 13.7201 11.3162 13.8295C11.4258 13.9389 11.5744 14.0003 11.7293 14.0003C11.8842 14.0003 12.0328 13.9389 12.1424 13.8295C12.2519 13.7201 12.3134 13.5717 12.3134 13.417C12.3119 12.0251 11.7575 10.6906 10.7719 9.70639C9.7863 8.72216 8.44998 8.16854 7.05613 8.16699Z" fill="#3C4852"/>
</g>
<defs>
<clipPath id="clip0_6_2">
<rect width="14.0195" height="14" fill="white" transform="translate(0.046875)"/>
</clipPath>
</defs>
</svg>
