<svg width="16" height="16" viewBox="0 0 16 16" fill="none" xmlns="http://www.w3.org/2000/svg">
<path d="M8.04755 0.690918C3.98931 0.690918 0.687547 3.99268 0.687547 8.05092C0.687547 9.31812 1.01491 10.5642 1.63571 11.6637L0.699387 15.0045C0.668667 15.1143 0.698428 15.232 0.777788 15.3136C0.838908 15.3767 0.922107 15.4109 1.00755 15.4109C1.03315 15.4109 1.05907 15.4077 1.08435 15.4016L4.57107 14.538C5.63571 15.1095 6.83475 15.4109 8.04755 15.4109C12.1058 15.4109 15.4075 12.1092 15.4075 8.05092C15.4075 3.99268 12.1058 0.690918 8.04755 0.690918ZM11.7499 10.648C11.5925 11.0839 10.8373 11.4816 10.4744 11.5351C10.1487 11.5828 9.73651 11.6032 9.28403 11.4612C9.00979 11.3748 8.65779 11.2602 8.20691 11.0679C6.31155 10.2596 5.07379 8.37508 4.97907 8.2506C4.88467 8.12612 4.20755 7.23908 4.20755 6.321C4.20755 5.40292 4.69555 4.9514 4.86899 4.76452C5.04243 4.57764 5.24691 4.53092 5.37299 4.53092C5.49907 4.53092 5.62483 4.53252 5.73523 4.53764C5.85139 4.5434 6.00723 4.4938 6.16051 4.85796C6.31795 5.23172 6.69587 6.1498 6.74259 6.24356C6.78995 6.337 6.82131 6.44612 6.75859 6.5706C6.69587 6.69508 6.66451 6.77284 6.56979 6.88196C6.47507 6.99108 6.37139 7.12516 6.28627 7.209C6.19155 7.30212 6.09331 7.40292 6.20339 7.5898C6.31347 7.77668 6.69267 8.38756 7.25459 8.88228C7.97619 9.5178 8.58515 9.71492 8.77395 9.80836C8.96275 9.9018 9.07315 9.88612 9.18323 9.76164C9.29331 9.63684 9.65555 9.21668 9.78131 9.03012C9.90707 8.84356 10.0331 8.87428 10.2066 8.93668C10.38 8.99876 11.309 9.44996 11.4978 9.5434C11.6866 9.63684 11.8127 9.68356 11.86 9.76132C11.9074 9.83876 11.9074 10.2125 11.7499 10.648Z" fill="#25D366"/>
</svg>
