<svg width="25" height="25" viewBox="0 0 25 25" fill="none" xmlns="http://www.w3.org/2000/svg">
<g clip-path="url(#clip0_12_4335)">
<path d="M12.9871 24.5C19.6145 24.5 24.9871 19.1274 24.9871 12.5C24.9871 5.87258 19.6145 0.5 12.9871 0.5C6.3597 0.5 0.987122 5.87258 0.987122 12.5C0.987122 19.1274 6.3597 24.5 12.9871 24.5Z" fill="#FF0000"/>
<path d="M20.6493 8.64212C20.4716 7.94879 19.9205 7.41546 19.2271 7.2199C17.9827 6.8999 12.9871 6.8999 12.9871 6.8999C12.9871 6.8999 7.99157 6.8999 6.72935 7.23768C6.03601 7.41546 5.50268 7.96657 5.30712 8.6599C4.96935 9.90435 4.96935 12.5177 4.96935 12.5177C4.96935 12.5177 4.96935 15.1132 5.30712 16.3755C5.4849 17.0688 6.03601 17.6021 6.72935 17.7977C7.97379 18.1355 12.9871 18.1355 12.9871 18.1355C12.9871 18.1355 17.9827 18.1355 19.2449 17.7977C19.9382 17.6199 20.4716 17.0688 20.6671 16.3755C21.0049 15.131 21.0049 12.5177 21.0049 12.5177C21.0049 12.5177 20.9871 9.90435 20.6493 8.64212ZM11.3871 14.8999V10.0999L15.5471 12.4999L11.3871 14.8999Z" fill="#FCFCFC"/>
</g>
<defs>
<clipPath id="clip0_12_4335">
<rect width="24" height="24" fill="white" transform="translate(0.987122 0.5)"/>
</clipPath>
</defs>
</svg>
