<svg width="30" height="31" viewBox="0 0 30 31" fill="none" xmlns="http://www.w3.org/2000/svg">
<g clip-path="url(#clip0_43_569)">
<path d="M6.10352e-05 22.4047V8.02111C6.10352e-05 3.70604 3.49321 0.212891 7.80828 0.212891H22.0891C26.4042 0.212891 29.8973 3.70604 29.8973 8.02111V22.3019C29.8973 26.617 26.4042 30.1102 22.0891 30.1102H7.80828C3.49321 30.2129 6.10352e-05 26.7197 6.10352e-05 22.4047Z" fill="url(#paint0_linear_43_569)"/>
<path d="M23.0138 13.0554C23.0138 11.1033 21.3699 9.45947 19.4179 9.45947H10.1713C8.21924 9.45947 6.57541 11.1033 6.57541 13.0554V17.3704C6.57541 19.3225 8.21924 20.9663 10.1713 20.9663H19.4179C21.3699 20.9663 23.0138 19.3225 23.0138 17.3704V13.0554ZM17.6713 15.5211L13.5617 17.5759C13.3562 17.6786 12.8425 17.5759 12.8425 17.3704V13.1581C12.8425 12.9526 13.3562 12.8499 13.5617 12.9526L17.5686 15.1102C17.6713 15.2129 17.774 15.4184 17.6713 15.5211Z" fill="white"/>
</g>
<defs>
<linearGradient id="paint0_linear_43_569" x1="27.7355" y1="2.52145" x2="2.30873" y2="27.9483" gradientUnits="userSpaceOnUse">
<stop stop-color="#FF0000"/>
<stop offset="1" stop-color="#850000"/>
</linearGradient>
<clipPath id="clip0_43_569">
<rect width="30" height="30" fill="white" transform="translate(6.10352e-05 0.212891)"/>
</clipPath>
</defs>
</svg>
